<?xml version="1.0" encoding="utf-8"?>
<!-- Generator: Adobe Illustrator 16.0.3, SVG Export Plug-In . SVG Version: 6.00 Build 0)  -->
<!DOCTYPE svg PUBLIC "-//W3C//DTD SVG 1.1//EN" "http://www.w3.org/Graphics/SVG/1.1/DTD/svg11.dtd">
<svg version="1.1" xmlns="http://www.w3.org/2000/svg" xmlns:xlink="http://www.w3.org/1999/xlink" x="0px" y="0px"
	 width="359.333px" height="359.333px" viewBox="0 0 359.333 359.333" enable-background="new 0 0 359.333 359.333"
	 xml:space="preserve">
<g id="Layer_1">
</g>
<g id="Layer_2">
	<g>
		<circle fill="none" stroke="#FFFFFF" stroke-miterlimit="10" cx="178.667" cy="178.667" r="173"/>
		<circle fill="#FFFFFF" cx="266.705" cy="177.523" r="5.417"/>
		<circle fill="#FFFFFF" cx="90.128" cy="177.523" r="5.417"/>
		<g>
			<path fill="#FFFFFF" d="M121.713,120.654c0-5.458,3.873-8.451,8.715-8.451c4.841,0,8.714,2.993,8.714,8.451v45.598
				c0,5.458-3.873,8.451-8.714,8.451c-4.842,0-8.715-2.993-8.715-8.451V120.654z M136.501,120.654c0-3.081-2.024-5.898-6.074-5.898
				s-6.074,2.817-6.074,5.898v45.598c0,3.081,2.025,5.898,6.074,5.898s6.074-2.817,6.074-5.898V120.654z"/>
			<path fill="#FFFFFF" d="M163.174,174.263l-13.645-30.457v30.457h-2.641v-61.619h2.641v29.577l13.292-29.577h2.729l-13.557,30.281
				l13.909,31.338H163.174z"/>
			<path fill="#FFFFFF" d="M182.276,155.777h-10.387l-2.553,18.485h-2.553l8.979-62.06h2.641l9.066,62.06h-2.641L182.276,155.777z
				 M181.924,153.313l-4.842-34.684l-4.841,34.684H181.924z"/>
			<path fill="#FFFFFF" d="M210.973,174.263h-2.643l-1.584-23.151c-0.439-4.577-2.465-6.778-6.514-6.778h-4.842v29.93h-2.641
				v-61.619h8.803c4.842,0,8.539,2.816,8.539,8.362v14.261c0,4.401-2.289,7.218-5.547,8.099c2.553,1.057,4.402,3.257,4.666,7.746
				L210.973,174.263z M195.391,115.021v26.848h6.162c4.049,0,5.898-2.816,5.898-5.897v-14.965c0-3.081-1.85-5.985-5.898-5.985
				H195.391z"/>
			<path fill="#FFFFFF" d="M230.426,155.777H220.04l-2.553,18.485h-2.553l8.979-62.06h2.641l9.066,62.06h-2.641L230.426,155.777z
				 M230.075,153.313l-4.842-34.684l-4.842,34.684H230.075z"/>
			<path fill="#FFFFFF" d="M124.705,185.446v28.609h10.74v2.465h-10.74v28.17h-2.641v-61.619h15.053v2.375H124.705z"/>
			<path fill="#FFFFFF" d="M141.959,191.081c0-5.457,3.873-8.451,8.715-8.451c4.841,0,8.714,2.994,8.714,8.451v45.598
				c0,5.459-3.873,8.451-8.714,8.451c-4.842,0-8.715-2.992-8.715-8.451V191.081z M156.748,191.081c0-3.082-2.024-5.898-6.074-5.898
				s-6.074,2.816-6.074,5.898v45.598c0,3.082,2.025,5.898,6.074,5.898s6.074-2.816,6.074-5.898V191.081z"/>
			<path fill="#FFFFFF" d="M166.783,191.081c0-5.457,3.873-8.451,8.714-8.451c4.841,0,8.714,2.994,8.714,8.451v45.598
				c0,5.459-3.873,8.451-8.714,8.451c-4.841,0-8.714-2.992-8.714-8.451V191.081z M181.571,191.081c0-3.082-2.023-5.898-6.073-5.898
				c-4.049,0-6.074,2.816-6.074,5.898v45.598c0,3.082,2.025,5.898,6.074,5.898c4.05,0,6.073-2.816,6.073-5.898V191.081z"/>
			<path fill="#FFFFFF" d="M200.762,183.071c4.84,0,8.537,2.816,8.537,8.361v44.895c0,5.457-3.697,8.363-8.537,8.363h-8.805v-61.619
				H200.762z M206.659,191.432c0-3.08-1.848-5.986-5.896-5.986H194.6v56.779h6.162c4.049,0,5.896-2.816,5.896-5.898V191.432z"/>
			<path fill="#FFFFFF" d="M233.684,236.678c0,5.459-3.873,8.451-8.715,8.451s-8.715-2.992-8.715-8.451v-13.996h2.641v13.996
				c0,3.082,2.025,5.898,6.074,5.898s6.074-2.816,6.074-5.898v-9.066c0-12.148-14.789-13.381-14.789-27.201v-9.33
				c0-5.457,3.873-8.451,8.715-8.451s8.715,2.994,8.715,8.451v13.996h-2.641v-13.996c0-3.082-2.025-5.898-6.074-5.898
				s-6.074,2.816-6.074,5.898v9.33c0,12.061,14.789,13.557,14.789,27.201V236.678z"/>
		</g>
		<g opacity="0.3">
			<path fill-rule="evenodd" clip-rule="evenodd" d="M293.114,213.899c0-0.735-0.011-1.473,0.005-2.207
				c0.008-0.354-0.019-0.746,0.121-1.053c0.77-1.685,2.2-2.823,3.532-4.013c0.546-0.487,4.042-0.862,4.704-0.55
				c0.776,0.365,1.546,0.837,2.154,1.432c0.573,0.561,1.122,0.74,1.909,0.781c2.361,0.123,4.237,1.013,4.686,3.636
				c0.255,1.485,1.63,1.729,2.61,2.38c0.359,0.239,1.664-0.837,1.813-1.386c0.482-1.776-0.443-3.779-1.994-4.754
				c-1.587-1.001-3.126-1.633-4.886-0.48c-2.878,0.051-3.865,0.525-3.602-2.913c0.04-0.513,0.108-1.065,0.336-1.511
				c0.233-0.455,0.169-1.368,1.141-1.072c0.244,0.072,0.691,0.206,0.684,0.263c-0.068,0.505-0.057,1.219-0.377,1.455
				c-0.84,0.626-0.806,1.458-0.646,2.22c0.133,0.625,0.416,1.092,1.437,0.541c1.771-0.954,3.845-0.569,5.807-0.628
				c1.21-0.034,2.03,0.891,2.639,1.525c1.228,1.279,2.151,2.904,2.231,4.832c0.089,2.149-0.143,4.241-0.774,6.306
				c-0.825,2.699-2.488,4.794-4.481,6.71c-0.676,0.65-1.305,1.17-2.291,1.181c-0.235,0.002-0.312,0.426-0.808,0.179
				c-0.592-0.298-1.378-0.239-2.082-0.279c-0.344-0.019-0.694,0.088-1.042,0.139c0.108,0.26,0.383,0.646,0.297,0.759
				c-0.448,0.598-1.5,0.619-1.891,0.106c-0.279-0.368-0.715-0.555-1.232-0.459c-1.037,0.193-2.124-0.187-2.675-0.795
				c-1.418-1.567-3.353-2.479-4.589-4.353C294.022,219.125,293.114,217.347,293.114,213.899z"/>
			<g>
				<path fill-rule="evenodd" clip-rule="evenodd" d="M203.631,46.388c1.363,0.262,2.76-0.061,3.937,0.78
					c0.395,0.281,0.715,0.77,0.891,1.231c0.271,0.718,0.311,1.526,0.589,2.239c0.858,2.183,0.55,4.157-0.517,6.243
					c-1.027,2.007-2.792,2.759-4.638,3.502c-1.061,0.427-2.161,0.665-3.354,0.599c-1.219-0.068-2.468-0.261-3.661,0.472
					c-0.468,0.287-1.318,0.205-1.883-0.007c-0.389-0.147-0.932-1-0.816-1.206c1.123-1.997,0.192-4.119,0.495-6.148
					c0.115-0.77,0.134-1.48,0.474-2.289c1.177-2.799,1.947-3.846,4.623-4.639C201.024,46.795,202.342,46.64,203.631,46.388z
					 M204.855,48.098c-0.553,0.214-1.175,0.487-1.817,0.696c-0.528,0.172-1.079,0.272-1.622,0.395
					c-0.134,0.03-0.736,0.568-1.171,0.926c-0.462,0.378-1.014,0.643-1.502,0.991c-0.117,0.083-0.136,0.302-0.2,0.458
					c0.959,0.136,0.968,1.11,1.474,1.643c0.073,0.079,0.353,0.013,0.505-0.057c0.065-0.029,0.108-0.314,0.055-0.361
					c-0.948-0.833-0.055-1.264,0.423-1.696c0.153-0.14,0.759,1.061,0.89-0.201c0.033-0.312,2.801-1.982,3.127-2.092
					c0.239-0.08,0.469-0.184,0.701-0.277c-0.226-0.112-0.453-0.224-7.174,4.403c0-0.818,0-1.091,0-1.363
					c-0.284,0.192-0.652,0.326-0.833,0.588c-0.333,0.48-0.665,1.012-0.791,1.569c-0.11,0.49,0.06,1.045,0.104,1.57
					c0.257-0.348,0.534-0.68,0.762-1.045C198.133,53.681,198.447,53.093,204.855,48.098z"/>
				<path fill-rule="evenodd" clip-rule="evenodd" d="M218.515,50.434c2.062,2.276,1.941,2.638,1.697,2.769
					c-1.371,0.734-2.104,2.05-3.116,3.111c-1.187,1.246-2.664,2.414-4.722,2.5c-1.148,0.049-2.254,0.299-3.403-0.055
					c-0.573-0.176-0.352-0.275-0.165-0.651c0.858-1.725,1.606-3.505,1.32-5.5c-0.146-1.024-0.387-2.036-0.62-3.045
					c-0.113-0.494-0.382-0.961-0.448-1.457c-0.039-0.302,0.146-0.652,0.298-0.947c0.037-0.069,0.401-0.073,0.513,0.018
					c0.445,0.372,0.338,0.755-0.046,1.13c-0.077,0.075-0.104,0.345-0.067,0.365c0.146,0.079,0.429,0.176,0.475,0.118
					c0.191-0.239,0.25-0.62,0.477-0.783c0.233-0.167,0.617-0.111,0.916-0.208c0.298-0.098,0.143,2.638,0.794,0.126
					c0.011-0.048,0.252-0.076,0.373-0.05c0.5,0.112,0.991,0.33,1.494,0.353c0.454,0.022,0.917-0.159,1.375-0.251
					c-0.443-0.258-0.87-0.703-1.332-0.741c-1.226-0.102-2.292-0.82-3.604-0.682c-1.391,0.147-2.853,0.247-4.173-0.506
					c-0.39-0.224-1.159,0.439-1.202-0.392c-0.012-0.215,0.893-0.404,1.271-0.729c1.161-0.994,2.843-0.008,3.958-1.09
					c1.565,0.901,3.521,0.547,5.046,1.816c1.759,1.465,3.198,3.132,4.399,5.041C220.333,51.187,220.572,51.731,218.515,50.434
					c-2.437-1.968-2.523-2.076-2.61-2.183c-0.082,0.082-0.164,0.164-0.246,0.246c0.108,0.084,0.213,0.18,0.332,0.245
					C216.012,48.753,216.101,48.636,218.515,50.434z"/>
			</g>
			<g>
				<path fill-rule="evenodd" clip-rule="evenodd" d="M140.109,299.83c0.276,0,0.683,0.12,0.807-0.018
					c1.189-1.313,2.747-1.081,4.25-1.083c2.903-0.006,3.687,0.55,5.744,2.713c1.486,1.564,2.096,3.301,1.867,5.296
					c-0.323,2.797-1.64,5.756-5.397,6.979c-1.843,0.602-3.404,0.396-5.08-0.098c-0.316-0.094-0.604-0.355-0.851-0.593
					c-0.423-0.407-0.605-0.395-0.987-0.033c-1.53,1.443-2.828,3.011-5.133,3.606c-2.856,0.741-5.161,0.113-7.314-1.563
					c-2.3-1.787-3.535-4.176-3.348-7.142c0.116-1.859,0.854-3.446,2.041-4.953c1.489-1.892,3.548-2.488,5.643-3.075
					c0.647-0.182,1.588-0.173,2.088,0.182c0.811,0.577,1.594,0.16,2.36,0.333c0.282,1.158,1.491,1.079,2.208,1.657
					c0.185,0.184,0.369,0.368,0.553,0.551c0.183,0.186,0.368,0.37,0.805,0.714c0.167,0.055,0.081-0.054-0.007-0.161
					c-0.081,0.082-0.164,0.164-0.246,0.247c0.109,0.085,0.213,0.181,0.332,0.244c0.021,0.011,0.112-0.105-0.079-0.331
					c-0.438-0.343-0.622-0.527-0.805-0.713c-0.184-0.183-0.368-0.367-0.553-0.551c0-0.368,0-0.736,0-1.105
					c0.185-0.184,0.369-0.366,0.553-0.552C139.741,300.2,139.925,300.014,140.109,299.83z M135.692,311.426
					c0.184,0.183,0.368,0.368,0.552,0.551c0.184,0.921,0.368,1.842,0.552,2.761c-0.454,0-1.123-0.189-1.32,0.035
					c-0.674,0.769-1.491,0.441-2.258,0.52c-0.509,0.051-0.884-0.035-0.844-0.684c0.027-0.45,0.034-0.908-0.006-1.357
					c-0.022-0.242-0.164-0.473-0.251-0.709c-0.097,0.224-0.217,0.44-0.285,0.671c-0.409,1.37-0.939,1.933-1.652,1.48
					c-0.853-0.542-1.58-1.359-2.182-2.188c-0.359-0.494,0.208-1.43,1.635-2.777c-0.166,0.098-0.365,0.217-0.566,0.335
					c0.086,0.086,0.195,0.26,0.253,0.242c0.276-0.073,0.538-0.201,0.805-0.308c-0.14-0.076-0.28-0.152-1.058,0.323
					c-0.639,0-1.278-0.021-1.916,0.007c-0.513,0.022-0.883-0.04-0.853-0.693c0.032-0.637,0.041-1.279,0-1.915
					c-0.059-0.935,0.739-0.891,1.076-0.674c1.25,0.807,2.598,0.411,3.901,0.515c0.474,0.827,0.474,0.827,0,1.902
					c0-0.081,0-0.164,0-0.245c-0.144,0.049-0.304,0.078-0.418,0.165c-0.035,0.027,0.058,0.219,0.091,0.335
					c0.108-0.084,0.217-0.169,0.327-0.5c0.754-0.11,1.243,0.054,1.123,0.981c-0.026,0.202,0.182,0.433,0.282,0.649
					c0.083-0.147,0.269-0.326,0.236-0.439c-0.411-1.39,1.031-1.147,1.523-1.731c0.143-0.171,0.46-0.194,0.697-0.285
					c-0.234-0.094-0.477-0.171-0.7-0.282c-1.661-0.833-1.659-0.833-3.162-0.55c-0.191-1.073-1.014-0.424-1.537-0.537
					c-1.188-0.255-2.438-0.347-2.883-1.789c-0.171-0.554-0.345-0.535-0.554,0c-0.982,2.522-0.849,4.931,0.545,7.295
					c1.717,2.911,5.841,4.267,9.007,2.861c0.344-0.151,0.63-0.432,0.943-0.653c1.517-0.374,2.386-1.244,2.761-2.761
					c0.826-0.046,0.469-0.685,1.104-3.455c0-0.639,0.024-1.281-0.013-1.92c-0.015-0.234-0.177-0.46-0.271-0.691
					c-0.129,0.129-0.282,0.244-0.384,0.392c-0.75,1.069-1.759,1.487-3.048,1.266c-0.266-0.047-0.551-0.038-0.819,0.005
					c-0.155,0.025-0.29,0.173-0.435,0.266c0.145,0.091,0.286,0.253,0.435,0.263c0.546,0.032,1.097,0,1.645,0.015
					c0.719,0.02,1.675-0.204,2.085,0.169c0.385,0.347,0.176,1.337,0.262,2.041c0.024,0.189,0.172,0.364,0.265,0.548
					c0.092-0.234,0.247-0.466,0.265-0.708c0.039-0.544,0.012-1.096-0.54,0.708c-0.826,0.048-0.469,0.687-0.552,1.104
					c-0.276,0.186-0.614,0.317-0.817,0.563c-0.585,0.709-1.094,0.709-1.68,0c-0.202-0.245-0.541-0.377-0.816-0.563
					c-0.184-0.183-0.369-0.368-0.799-0.551C135.528,311.426,135.61,311.426,135.692,311.426c-0.052-0.144-0.08-0.305-0.167-0.419
					c-0.025-0.034-0.218,0.058-0.334,0.091C135.275,311.208,135.361,311.318,135.692,311.426z M127.41,303.695
					c0.184-0.184,0.368-0.368,0.552-0.552c1.664,0.014,1.655,0.02,2.668,1.271c0.148,0.182,0.426,0.26,0.645,0.386
					c0.083,0.419-0.274,1.057,1.06,1.425c-0.086-0.105-0.174-0.214-0.261-0.32c-0.082,0.082-0.165,0.164-0.246,0.245
					c0.108,0.086,0.212,0.18,0.332,0.247c0.021,0.01,0.111-0.108-0.332-0.492c-0.083-0.419,0.274-1.059-0.553-1.104
					c-0.062-0.339-0.074-0.697-0.196-1.013c-0.588-1.518-0.224-2.223,1.234-2.296c0.545-0.027,1.093-0.015,1.64-0.003
					c1.351,0.026,1.411,0.16,0.961,1.613c-0.326,1.053-0.611,2.12-0.859,3.194c-0.047,0.205,0.159,0.468,0.249,0.704
					c0.129-0.123,0.283-0.229,0.383-0.374c0.542-0.781,1.141-1.551,1-2.588c-0.108-0.782,0.408-1.21,0.975-1.396
					c0.264-0.086,0.735,0.358,1.068,0.62c0.627,0.49,1.22,1.021,2.333,1.857c-0.086-0.105-0.174-0.214-0.26-0.32
					c-0.082,0.081-0.165,0.164-0.246,0.245c0.108,0.086,0.212,0.181,0.333,0.246c0.02,0.011,0.11-0.107-0.333-0.491
					c-0.063-0.339-0.013-0.771-0.205-1.002c-1.893-2.275-4.347-3.205-7.273-2.858c-1.649,0.196-3.151,0.711-4.118,2.203
					c-0.184,0.184-0.368,0.368-0.552,0.799C127.41,303.861,127.41,303.778,127.41,303.695c-0.144,0.053-0.304,0.081-0.419,0.167
					c-0.034,0.027,0.058,0.219,0.091,0.335C127.192,304.112,127.301,304.028,127.41,303.695z M145.414,299.607
					c-0.177,0.429-0.28,0.616-0.327,0.815c-0.038,0.163-0.008,0.341-0.008,0.512c0.183-0.126,0.47-0.22,0.525-0.389
					c0.063-0.193-0.079-0.453-0.525,0.636c0-0.081,0-0.164,0-0.247c-0.144,0.053-0.304,0.079-0.419,0.167
					c-0.034,0.027,0.057,0.219,0.091,0.335C144.861,301.351,144.97,301.267,145.414,299.607z M140.821,305.572
					c0.239-0.29,0.383-0.386,0.38-0.477c-0.009-0.239-0.081-0.475-0.128-0.712c-0.121,0.03-0.347,0.063-0.347,0.094
					c0.003,0.296,0.044,0.593,1.081,1.441c-0.098-0.165-0.217-0.366-0.335-0.566c-0.086,0.086-0.258,0.193-0.242,0.253
					c0.075,0.275,0.201,0.538,0.308,0.805C141.613,306.269,141.69,306.13,140.821,305.572z M147.928,301.343
					c-0.271-0.285-0.593-0.623-0.915-0.961c-0.092,0.144-0.298,0.36-0.26,0.421c0.26,0.413,0.571,0.79,0.866,1.181
					c0.074-0.153,0.147-0.306-0.011-2.109c-0.106,0.088-0.214,0.175-0.321,0.261c0.082,0.083,0.165,0.165,0.247,0.247
					c0.084-0.108,0.18-0.212,0.245-0.333C147.79,300.029,147.673,299.94,147.928,301.343z M141.653,310.342
					c-0.203,0.126-0.425,0.208-0.421,0.272c0.016,0.244,0.107,0.483,0.17,0.724c0.121-0.07,0.341-0.132,0.346-0.209
					C141.762,310.889,141.697,310.642,141.653,310.342z M142.121,308.585c0.075-0.073,0.136-0.136,0.198-0.197
					c-0.123-0.061-0.241-0.144-0.371-0.172c-0.045-0.01-0.12,0.111-0.182,0.172C141.887,308.455,142.006,308.522,142.121,308.585z"
					/>
				<path fill-rule="evenodd" clip-rule="evenodd" d="M136.796,300.382c-0.562-0.898-1.431-1.121-2.415-1.106
					c-0.919,0.013-1.838,0.009-2.759,0.001c-1.398-0.013-1.775-0.468-1.451-1.742c0.687-2.699,4.912-5.004,7.629-4.15
					c1.838,0.575,3.274,1.6,4.047,3.467c0.457,1.101,0.547,1.421-0.447,1.824c-0.647,0.261-1.091,0.506-1.292,1.154
					c-0.184,0.185-0.369,0.37-0.552,0.553c-0.184,0.186-0.368,0.368-0.553,0.552c-0.335-0.059-0.677-0.101-1.007-0.184
					C137.593,300.646,137.196,300.507,136.796,300.382z M138.254,296.052c0.361-0.149,0.511-0.212,0.662-0.273
					c-0.253-0.3-0.505-0.6-0.76-0.897c-0.085,0.143-0.263,0.305-0.236,0.421C137.98,295.569,138.14,295.81,138.254,296.052z
					 M136.684,294.331c-0.203,0.126-0.425,0.207-0.421,0.272c0.017,0.243,0.107,0.481,0.17,0.724
					c0.122-0.07,0.342-0.133,0.345-0.209C136.792,294.875,136.727,294.63,136.684,294.331z"/>
			</g>
			<g>
				<path fill-rule="evenodd" clip-rule="evenodd" d="M52.386,215.482c-0.067,1,0.868,1.229,1.403,1.749
					c0.113,0.108,0.551-0.063,0.812-0.171c1.582-0.654,2.246-0.291,2.784,1.468c0.801,2.609,1.636,5.199,1.915,7.943
					c0.086,0.828,0.604,1.616,0.94,2.415c0.813,1.926,1.523,3.904,2.479,5.757c1.645,3.189,1.135,6.779-1.497,9.296
					c-0.983-0.105-0.642,1.628-1.792,1.289c-3.851,1.743-7.787-0.897-9.17-4.007c-0.911-2.047-1.416-7.348-1.383-9.599
					c0.043-2.925,0.932-5.814,0.665-8.674c-0.193-2.071,0.988-3.966,0.322-6.015c-0.099-0.304,0.506-0.834,0.785-1.262
					C51.229,215.607,51.808,215.543,52.386,215.482z M56.116,226.441c0.033,2.695-0.137,5.389,0.187,8.021
					c0.164,1.34,0.688,2.904,2.151,3.668c0.244,0.127,0.619,0.005,0.933-0.002c-0.019-0.255,0.062-0.596-0.071-0.75
					c-1.447-1.663-1.862-3.764-2.265-5.79c-0.328-1.656-0.179-3.407-0.254-5.115c-0.006-0.162-0.112-0.321-0.173-0.482
					c-0.151,0.134-0.303,0.27-0.729-0.736c0.062,0.184,0.135,0.405,0.209,0.625c0.102-0.067,0.293-0.138,0.291-0.198
					c-0.016-0.285-0.084-0.566-0.133-0.851C56.157,224.951,56.053,225.071,56.116,226.441z M51.218,236.712
					c0.159-0.728,0.016-3.306-0.188-4.348c-0.129-0.661,0.003-1.396-0.62-1.891c-0.542,0.664-0.155,1.304,0.003,1.978
					c0.076,0.319-0.208,0.712-0.189,1.063c0.068,1.271,0.188,2.541,0.309,3.81c0.011,0.119,0.177,0.223,0.271,0.333
					c0.1-0.136,0.228-0.26,0.292-0.413C51.167,237.081,51.18,236.891,51.218,236.712z M53.482,241.953
					c0.02-0.091,0.065-0.185,0.054-0.271c-0.1-0.829-1.029-2.033-1.541-1.997c-0.081,0.005-0.188,0.075-0.229,0.146
					c-0.563,1,0.552,1.4,0.786,2.119c0.035,0.106,0.301,0.192,0.461,0.192C53.17,242.142,53.326,242.019,53.482,241.953z
					 M55.475,221.519c-0.144-0.551-0.232-1.043-0.422-1.494c-0.034-0.084-0.467,0-0.717,0.007c0.038,0.384-0.018,0.813,0.14,1.137
					c0.125,0.259,0.505,0.398,0.791,0.558C55.298,221.744,55.453,221.542,55.475,221.519z"/>
				<path fill-rule="evenodd" clip-rule="evenodd" d="M50.649,215.672c-0.365-0.162-1.034,0.052-0.978-0.654
					c0.127-1.602,0.85-2.863,2.276-3.673c0.871-0.495,1.376-1.063,0.821-2.165c-0.251-0.5-0.178-1.164-0.244-1.755
					c-0.098-0.887,0.2-1.411,0.759-1.352c0.72,0.074,1.438,0.736,1.378,1.358c-0.051,0.544-0.144,1.107-0.347,1.61
					c-0.529,1.31-0.061,2.399,0.963,3.062c1.411,0.915,1.339,2.78,2.654,3.687c-0.177,0.255-0.382,0.744-0.524,0.727
					c-0.712-0.089-1.42-0.277-2.106-0.504c-0.37-0.119-0.691-0.387-1.036-0.589c0.053,0.277,0.104,0.555,0.156,0.83
					c-0.255,0.021-0.676,0.145-0.736,0.048c-0.311-0.509-0.71-0.797-1.301-0.82c-0.126-0.315-0.184-0.688-0.391-0.934
					c-0.562-0.676-0.873-0.576-1.172,0.334C50.74,215.139,50.707,215.409,50.649,215.672z"/>
			</g>
			<g>
				<path fill-rule="evenodd" clip-rule="evenodd" d="M117.314,65.073c-0.368-0.184-0.736-0.368-1.104-0.552
					c-0.184-0.184-0.368-0.368-0.552-0.552c0.088-0.857-0.233-1.44-1.228-1.657c-0.042,0,0.042,0,0.123,0
					c-0.051-0.143-0.08-0.304-0.167-0.418c-0.026-0.035-0.218,0.058-0.334,0.091c0.084,0.109,0.17,0.218,0.378,0.327
					c0.033,0.857,0.355,1.44,1.228,1.657c0.184,0.184,0.368,0.368,0.552,0.552c0,0.274-0.119,0.668,0.019,0.805
					c1.128,1.122,1.128,2.522,1.097,3.954c-0.006,0.239,0.146,0.483,0.225,0.725c0.105-0.206,0.235-0.402,0.309-0.618
					c0.111-0.321,0.182-0.657,0.27-0.986c0.127,0.304,0.246,0.612,0.387,0.91c0.641,1.352,0.934,2.646-0.218,3.938
					c-0.305,0.341-0.408,0.962-0.411,1.456c-0.01,1.429-0.365,2.708-1.088,3.956c-0.333,0.575-0.485,1.256-1.029,1.711
					c-0.389-0.764,0.422-1.372,0.368-1.914c-0.143-1.424,0.873-2.725,0.154-4.255c-0.333-0.71-0.392-1.88,0.384-2.814
					c0.249-0.3-0.25-1.264-0.474-1.901c-0.599-1.713-0.919-3.554-2.259-4.848c0-0.277,0.032-0.468,0.058-0.66
					c0.165-1.218-1.056-1.924-1.152-3.062c-0.009-0.105-0.481-0.299-0.671-0.239c-0.666,0.213-0.092,0.43,0.026,0.678
					c0.433,0.906,0.83,1.828,1.249,2.74c0.07,0.152,0.184,0.284,0.491,0.542c-0.071,1.583,0.623,3.152,0.845,4.798
					c0.244,1.814,0.568,3.618,0.872,5.424c0.305,1.815-0.411,3.518-0.583,5.281c-0.046,0.474-0.324,1.062-0.691,1.342
					c-1.534,1.171-2.249,3.421-4.591,3.533c-0.788,0.983-1.112-0.094-1.263-0.434c-0.206-0.46-0.027-1.082-0.062-1.63
					c-0.016-0.247-0.151-0.485-0.231-0.728c-0.104,0.21-0.28,0.414-0.296,0.63c-0.043,0.548,0.014,1.103-0.019,1.652
					c-0.082,1.303-1.279,2.035-2.495,1.499c-0.159-0.07-0.317-0.602-0.239-0.678c0.762-0.745,0.5-1.678,0.523-2.55
					c0.027-1.01,0.015-2.021,0.004-3.032c-0.01-0.888,0.808-1.568,0.568-2.531c-0.251-1.004,0.454-2.179-0.535-3.063
					c1.457-1.061-0.201-2.072-0.073-3.144c0.123-1.023,0.079-2.047-0.431-3.112c-0.395-0.822-0.181-1.997-0.055-2.992
					c0.207-1.646-0.597-3.098-0.757-4.67c-0.059-0.582-0.486-1.127-0.745-1.689c-0.06,0.619-0.107,1.239-0.18,1.856
					c-0.177,1.486-0.441,2.967-0.53,4.458c-0.092,1.557-0.028,3.124-0.018,4.685c0.007,1.146-0.067,2.265,0.487,3.386
					c0.226,0.458-0.577,1.519-0.321,1.851c0.547,0.708,0.348,1.385,0.372,2.071c0.077,2.289-0.238,4.585,1.06,6.742
					c0.588,0.977-0.658,2.485-1.794,2.458c-1.966-0.048-3.739-0.875-5.233-1.952c-1.308-0.941-1.888-2.653-2.276-4.243
					c-0.442-1.811-0.723-3.655-0.601-5.554c0.106-1.647,0.057-3.308,0.014-4.96c-0.068-2.584,0.513-5.005,1.65-7.315
					c0.109-0.222,0.015-0.544,0.015-0.82c1-0.909,1.99-1.834,3.02-2.707c0.125-0.106,0.503,0.02,0.719,0.128
					c0.098,0.048,0.177,0.374,0.112,0.475c-1.045,1.623-1.416,3.461-1.89,5.294c-0.156,0.605-0.24,1.189-0.301,1.792
					c-0.153,1.489,0.341,3.032-0.52,4.478c-0.242,0.407-0.246,1.207,0,1.609c0.986,1.624,0.306,3.364,0.515,5.03
					c0.186,1.485,0.216,3.013,0.61,4.44c0.239,0.869,1.005,1.61,1.612,2.346c0.158,0.19,0.61,0.198,0.915,0.166
					c0.083-0.008,0.136-0.463,0.17-0.718c0.024-0.177,0.067-0.421-0.024-0.534c-1.963-2.438-1.609-5.33-1.625-8.15
					c-0.008-1.469-0.255-2.995,0.054-4.396c0.57-2.589,0.299-5.195,0.574-7.767c0.119-1.115,0.316-2.345,0.987-3.433
					c0.924-1.497,0.974-1.62,2.814-1.382c0.327,0.042,0.678-0.119,1.018-0.187c-0.211-0.26-0.441-0.506-0.625-0.784
					c-0.111-0.168-0.149-0.385-0.221-0.58c0.172-0.029,0.342-0.077,0.515-0.087c0.847-0.052,1.424,0.309,1.494,1.18
					c0.056,0.708,0.319,1.341,0.49,1.995c0.42,1.607,0.396,3.326,0.641,4.985c0.319,2.151,0.497,4.362,1.152,6.415
					c0.771,2.42,0.318,4.826,0.489,7.231c0.025,0.366-0.006,0.735,0.013,1.102c0.002,0.068,0.144,0.197,0.179,0.184
					c0.13-0.047,0.35-0.144,0.35-0.222c0.013-4.591,0.007-9.182,0.002-13.774c-0.869-1.756-0.679-3.914-2.114-5.475
					c-0.245-0.267-0.007-0.969-0.25-1.248c-0.499-0.577-0.293-0.534,0.28-0.748c2.005-0.75,3.749,0.234,5.085,1.241
					c1.756,1.325,3.524,2.852,4.537,4.95C117.255,64.358,117.25,64.732,117.314,65.073z M111.793,81.638
					c1.573-0.438,0.992-1.738,2.208-9.155c0-0.509,0.072-1.163-0.02-1.791c-0.097-0.67-0.425-1.308-0.518-1.979
					c-0.294-2.153-0.427-4.321-2.077-6.04c-0.429-0.445-0.447-1.266-0.706-1.894c-0.259-0.627-0.559-1.24-0.892-1.831
					c-0.105-0.185-0.375-0.277-0.57-0.412c-0.059,0.249-0.238,0.545-0.16,0.738c0.513,1.255,0.91,2.607,1.67,3.7
					c1.157,1.662,1.168,3.598,1.548,5.411c0.331,1.582-0.002,3.292,0.088,4.938c0.094,1.672,0.342,3.336,0.542,5.001
					c0.023,0.192,0.175,0.368,0.266,0.552c0.092-0.146,0.285-0.308,0.262-0.433c-0.362-2,0.707-3.856-0.538,0.433
					c-1.053,0.646-1.156,1.672-1.104,3.006C111.793,81.802,111.793,81.72,111.793,81.638c-0.143,0.051-0.303,0.08-0.418,0.167
					c-0.034,0.027,0.058,0.219,0.092,0.334C111.575,82.054,111.685,81.97,111.793,81.638z"/>
				<path fill-rule="evenodd" clip-rule="evenodd" d="M91.404,71.45c-0.362-3.838,1.041-6.965,3.169-9.845
					c0.14-0.189,0.433-0.267,0.655-0.397c0,0.276,0.119,0.678-0.018,0.808c-1.359,1.284-0.999,2.944-1.104,4.525
					c-0.1,1.492-0.425,2.969-0.514,4.461c-0.091,1.558-0.091,3.129,0.001,4.686c0.083,1.4,0.362,2.79,0.514,4.188
					c0.021,0.193-0.193,0.412-0.297,0.619c-0.08-0.151-0.166-0.299-0.237-0.453C92.307,77.264,90.96,74.505,91.404,71.45z"/>
			</g>
			<g>
				<path fill-rule="evenodd" clip-rule="evenodd" d="M160.763,61.231c-0.612,0.52-1.211,1.055-1.839,1.556
					c-0.755,0.601-1.602,1.72-2.288,1.635c-1.191-0.147-2.322-0.991-3.412-1.651c-0.679-0.411-1.236-1.02-1.848-1.54
					c0.089-0.857-0.232-1.44-1.104-1.657c-0.184-0.184-0.368-0.368-2.484-5.285c-2-4.719-2.068-4.705-2.135-4.692
					c0.251,1.28,0.32,2.632,0.796,3.821c0.753,1.881,1.392,3.859,2.81,5.405c0.103,0.113,0.305,0.135,0.461,0.198
					c0-0.183,0.047-0.381-0.011-0.544c-0.084-0.236-0.263-0.437-0.368-0.668c-1.486-3.283-3.342-6.46-2.951-10.288
					c0.02-0.19-0.195-0.404-0.301-0.606c-0.078,0.241-0.211,0.479-0.223,0.725c-0.033,0.637-0.011,1.277,1.921,6.648
					c2.116,4.917,2.3,5.101,2.484,5.285c-0.088,0.857,0.232,1.44,1.104,1.657c-0.065,0.524,0.024,1.39-0.226,1.502
					c-0.51,0.229-1.303,0.253-1.801,0.005c-1.698-0.846-3.078-2.113-4.041-3.768c-1.52-2.609-2.436-5.381-2.226-8.461
					c0.103-1.501,1.615-5.104,2.713-6.047c1.255-1.078,2.775-1.059,4.272-0.777c0.306,0.058,0.507,0.669,0.756,1.026
					c-0.252,0.169-0.536,0.308-0.746,0.52c-0.104,0.104-0.155,0.453-0.086,0.506c1.252,0.978,4.526,0.748,5.954-0.417
					c0.134-0.11,0.245-0.429,0.182-0.563c-0.111-0.234-0.373-0.396-0.561-0.597c-1.125-1.205-1.198-1.787,0.224-2.441
					c1.499-0.69,3.173-1.694,4.902-0.365c0.402,0.309,0.928,0.565,1.15,0.979c1.125,2.102,2.257,4.208,3.213,6.39
					c0.728,1.661,1.244,3.417,1.248,5.284c0,0.594,0.239,1.186,0.331,1.784c0.046,0.306,0.135,0.722-0.015,0.924
					c-0.924,1.237,0.444,3.139-1.318,4.182c-0.693,0.411-1.191,1.007-2.126,0.917c-0.473-0.045-0.988,0.236-1.469,0.41
					C160.601,62.629,160.776,61.847,160.763,61.231c0.275,0,0.605,0.1,0.819-0.016c1.769-0.958,1.629-2.873,1.63-4.339
					c0.002-2.444-0.875-4.856-0.804-7.356c0.011-0.396,0.219-0.98-0.542-0.989c0-0.52,0.058-1.049-0.025-1.556
					c-0.039-0.239-0.343-0.437-0.527-0.653c-0.084-0.418,0.273-1.058-0.552-1.104c0.167-0.903-0.202-1.272-1.105-1.104
					c-0.047-0.826-0.686-0.469-1.771-0.552c-0.4,0-0.128,0.033,0.131-0.011c0.188-0.032,0.359-0.167,0.536-0.256
					c-0.225-0.095-0.447-0.254-0.679-0.272c-0.531-0.042-1.067-0.03-1.6-0.003c-0.15,0.008-0.292,0.145-0.438,0.222
					c0.193,0.107,0.377,0.264,0.584,0.307c0.255,0.053,0.531,0.013,1.465,0.013c0.715,0.826,1.354,0.469,1.771,0.552
					c0.369,0.369,0.737,0.736,1.105,1.104c0.083,0.418-0.274,1.058,0.552,1.104c0,0.52-0.057,1.049,0.024,1.556
					c0.039,0.239,0.343,0.437,0.527,0.653c-0.373,2.596,0.46,5.103,0.594,7.666C162.565,58.17,162.287,59.874,160.763,61.231z
					 M158.667,47.238c-0.265-0.144-0.458-0.308-0.675-0.354c-1.021-0.215-1.908,0.266-2.662,0.798
					c-0.523,0.369-1.548,0.921-1.129,1.629c0.55,0.928,1.377,0.127,2.045-0.229c0.673-0.358,1.359-0.697,2.003-1.101
					C158.436,47.866,158.498,47.554,158.667,47.238z M153.934,58.364c-0.137,0.263-0.365,0.492-0.327,0.662
					c0.125,0.563,0.386,1.096,0.521,1.657c0.242,1,1.024,0.625,1.445,0.424c0.508-0.243,0.182-0.699-0.126-1.075
					c-0.312-0.383-0.479-0.88-0.776-1.278C154.538,58.577,154.244,58.52,153.934,58.364z M151.513,49.636
					c0.272,0,0.571,0.071,0.81-0.019c0.265-0.1,0.476-0.347,0.71-0.529c-0.232-0.186-0.445-0.491-0.699-0.531
					c-0.532-0.083-1.091-0.066-1.627,0c-0.164,0.021-0.401,0.34-0.403,0.523c0,0.185,0.215,0.461,0.402,0.533
					C150.94,49.707,151.24,49.636,151.513,49.636z"/>
				<path fill-rule="evenodd" clip-rule="evenodd" d="M153.584,44.364c-0.463,0.249-0.998,0.67-1.601,0.823
					c-0.672,0.171-0.682-0.457-0.595-0.88c0.298-1.436-0.722-2.445-1.147-3.64c-0.074-0.21-0.524-0.35-0.822-0.404
					c-0.637-0.116-1.232-0.028-1.709,0.517c-0.067,0.077-0.561-0.061-0.674-0.225c-0.105-0.154-0.049-0.535,0.08-0.71
					c0.267-0.364,0.601-0.691,0.956-0.974c1.063-0.847,2.534-0.677,3.202,0.478c0.843,1.463,1.548,3.005,2.305,4.517
					C153.617,43.938,153.584,44.046,153.584,44.364z"/>
			</g>
			<g>
				<path fill-rule="evenodd" clip-rule="evenodd" d="M101.192,284.557c-0.131,0.406-0.206,0.839-0.397,1.214
					c-1.229,2.383-2.885,4.467-5.254,5.718c-1.012,0.531-2.156,1.141-3.299,1.295c-1.623,0.222-3.301,0.104-4.951,0.027
					c-0.47-0.022-1.139-0.282-1.348-0.646c-0.94-1.638-2.713-1.545-4.146-2.024c-1.122-0.376-2.019-0.905-2.918-1.635
					c-3.156-2.559-4.024-6.045-4.191-9.851c-0.174-3.955,1.291-7.272,3.723-10.328c0.823-1.033,1.783-1.815,2.69-2.708
					c2.047-2.014,5.584-1.991,7.612,0.048c3.304,3.321,3.57,2.93,5.974,8.244c0.141,0.31,0.322,0.605,0.422,0.926
					c0.15,0.473-0.323,1.231,0.394,1.388c0.417,0.091,0.935-0.335,1.416-0.499c1.611-0.545,3.005-1.722,4.825-1.66
					c0,0.186,0,0.37,0.109,0.751c-0.18-0.043-0.276-0.188-0.366-0.186c-0.239,0.01-0.476,0.082-0.713,0.13
					c0.031,0.121,0.064,0.347,0.094,0.347c0.296-0.003,0.593-0.044,0.984-0.291c1.239,0.645,1.258,2.083,0.926,3.248
					c-0.455,1.595-0.827,3.266-1.734,4.721c-0.447,0.713-1.036,1.388-0.958,2.324c-0.74,0.648-1.551,1.231-2.204,1.956
					c-1.481,1.647-3.513,2.044-5.452,2.796c-1.181,0.456-1.777-0.401-2.698-0.438c-1.776-0.074-3.059-1.586-3.875-2.973
					c-0.532-0.899-0.427-2.445,0.425-3.549c0.419-0.085,1.057,0.273,1.104-0.553c0.184-0.184,0.368-0.368,0.553-0.552
					c0.417-0.084,1.057,0.274,1.104-0.553c0.856,0.09,1.44-0.232,1.657-1.104c0.418-0.083,1.057,0.273,1.104-0.553
					c0.183-0.184,0.368-0.368,0.552-0.552c0.418-0.084,1.057,0.274,1.265-0.806c0.054-0.168-0.053-0.08-0.161,0.006
					c0.082,0.083,0.165,0.166,0.246,0.247c0.085-0.108,0.18-0.212,0.245-0.333c0.011-0.021-0.106-0.109-0.331,0.08
					c-0.579,0.338-1.218-0.021-1.265,0.806c-0.184,0.184-0.369,0.368-0.552,0.552c-0.419,0.084-1.058-0.272-1.104,0.553
					c-0.857-0.09-1.441,0.232-1.657,1.104c-0.419,0.083-1.058-0.273-1.104,0.553c-0.185,0.184-0.369,0.368-0.553,0.552
					c-0.418,0.084-1.057-0.274-1.104,0.553c-0.652,0.189-1.376,0.256-1.939,0.596c-1.591,0.961-1.765,2.239-0.611,3.748
					c0.165,0.217,0.372,0.405,0.578,0.583c2.102,1.818,4.409,2.886,7.324,2.855c3.894-0.04,6.358-2.142,8.439-5.034
					c0.087-0.121,0.011-0.357,0.011-0.54C100.457,284.926,100.824,284.742,101.192,284.557z M76.351,278.572
					c-0.118,1.803,0.642,3.492,1.004,5.262c0.369,1.812,1.584,2.393,2.824,3.204c0.486,0.316,0.579,0.18,0.582-0.284
					c0.005-1.371-0.07-2.751,0.021-4.116c0.094-1.396,0.474-2.777,0.497-4.168c0.022-1.34,0.315-2.598,0.548-3.896
					c0.341-1.908,0.394-3.868,0.607-5.802c0.035-0.32,0.329-0.605,0.394-0.928c0.084-0.42,0.061-0.86,0.083-1.292
					c-0.323,0.181-0.725,0.292-0.957,0.553c-1.002,1.127-2.106,2.204-2.892,3.472C77.567,272.991,76.077,275.461,76.351,278.572z
					 M100.009,275.368c-0.075-0.073-0.136-0.136-0.197-0.196c-0.062,0.123-0.144,0.241-0.173,0.37
					c-0.01,0.046,0.111,0.119,0.173,0.182C99.878,275.604,99.945,275.483,100.009,275.368z M98.352,276.079
					c-0.064-0.115-0.131-0.234-0.196-0.355c-0.062,0.063-0.183,0.137-0.173,0.182c0.028,0.131,0.111,0.248,0.173,0.371
					C98.216,276.213,98.278,276.153,98.352,276.079z M96.971,276.749c0.116-0.064,0.236-0.13,0.356-0.197
					c-0.063-0.061-0.137-0.183-0.182-0.172c-0.13,0.028-0.249,0.111-0.371,0.172C96.837,276.614,96.897,276.674,96.971,276.749z
					 M95.867,276.907c-0.074,0.075-0.135,0.136-0.196,0.197c0.123,0.061,0.24,0.144,0.37,0.172c0.045,0.01,0.12-0.111,0.183-0.172
					C96.103,277.038,95.983,276.97,95.867,276.907z M95.04,277.578c-0.075-0.075-0.136-0.136-0.197-0.198
					c-0.062,0.123-0.144,0.241-0.172,0.372c-0.011,0.044,0.11,0.119,0.172,0.182C94.909,277.812,94.975,277.692,95.04,277.578z"/>
				<path fill-rule="evenodd" clip-rule="evenodd" d="M103.4,273.515c0.142-0.184,0.386-0.54,0.409-0.527
					c0.431,0.258,1.142,0.516,1.191,0.863c0.155,1.063,0.356,2.275-0.002,3.225c-0.884,2.337-1.623,4.76-2.974,6.899
					c-0.166,0.265-0.548,0.393-0.832,0.582c0.061-0.337,0.038-0.721,0.196-1.002c1.192-2.134,2.135-4.36,2.834-6.704
					C104.728,275.163,104.643,274.618,103.4,273.515z"/>
				<path fill-rule="evenodd" clip-rule="evenodd" d="M101.744,274.066c0.259-1.063,1.113-0.341,1.656-0.551
					C103.142,274.578,102.289,273.856,101.744,274.066z"/>
			</g>
			<g>
				<path fill-rule="evenodd" clip-rule="evenodd" d="M48.401,167.419c-0.321,0.507,0.393,1.548-0.856,1.618
					c-0.154,0.008-0.476,0.673-0.392,0.784c0.855,1.122-0.067,2.063-0.33,3.007c-0.346,1.247-0.997,2.362,0.077,3.61
					c0.386,0.45,0.326,1.176-0.187,1.744c-0.363,0.401-0.606,0.911-0.908,1.369c-1.004,1.527-1.574,1.521-2.6-0.065
					c-0.277-0.427-0.715-0.943-0.655-1.358c0.213-1.493-0.107-2.698-1.22-3.762c-0.441-0.42-0.054-1.085,0.577-0.935
					c1.155,0.278,1.312,0.03,1.515-1.183c0.194-1.157,1.16-2.202,0.861-3.551c-0.054-0.254-0.109-0.509-0.163-0.764
					c0.146-0.563,0.292-1.127,0.437-1.69c0.254-0.055,0.509-0.109,0.764-0.164c0.229-0.017,0.573,0.056,0.67-0.066
					c0.389-0.488,0.69-1.048,1.054-1.56c0.086-0.121,0.29-0.158,0.438-0.234c0.018,0.157,0.104,0.352,0.042,0.465
					c-0.349,0.633-0.188,1.167,0.25,1.669C47.365,167.074,48.094,167.122,48.401,167.419z"/>
				<path fill-rule="evenodd" clip-rule="evenodd" d="M39.869,159.262c-0.012,0.255-0.073,0.519-0.024,0.761
					c0.053,0.256-0.044,0.841,0.533,0.456c0.209-0.139,0.259-0.507,0.464-0.663c0.72-0.545,1.869-0.551,2.089,0.179
					c0.322,1.07,1.234,1.233,2.098,1.82c-0.136,0.128-0.308,0.13-0.354,0.208c-0.123,0.206-0.19,0.444-0.279,0.669
					c0.118,0.039,0.325,0.135,0.343,0.11c0.158-0.252,0.285-0.523,0.29-0.986c-0.125-0.169-0.026-0.324,0.075-0.478
					c0.463,0.3,0.927,0.6,1.39,0.9c0.404,1.395,0.405,1.395-0.431,2.697c-0.246,0.383-0.496,0.765-0.742,1.147
					c-0.255,0.054-0.51,0.109-0.764,0.164c-0.67-0.124-1.658,0.113-1.88-0.634c-0.416-1.391-0.951-0.529-1.501-0.24
					c-0.309-0.2-0.617-0.4-0.927-0.601c0.411-0.719-0.32-0.767-0.626-1.063c0.41-0.72-0.321-0.767-0.627-1.064
					c-0.055-0.254-0.109-0.509-0.163-0.764c0.083-0.351,0.166-0.701,0.249-1.052c-0.546,0.051-1.093,0.101-1.639,0.151
					c-1.236-1.41-1.457-2.958-0.68-4.063c0.44-0.627,1.021-0.762,1.62-0.558c0.592,0.202,1.033,0.53,0.621,1.411
					C38.773,158.259,39.131,159.017,39.869,159.262z"/>
				<path fill-rule="evenodd" clip-rule="evenodd" d="M48.295,159.457c0.929-2.261,2.718-2.754,4.94-2.471
					c0.669,0.084,0.992,0.183,0.675,0.944c-0.189,0.453-0.128,1.014-0.333,1.456c-0.308,0.658-0.186,1.174,0.252,1.682
					c-0.158,0.396-0.805,0.739-0.137,1.227c-0.3,0.463-0.6,0.927-0.9,1.391c-0.91,0.076-1.651,0.439-2.127,1.253
					c-0.396-0.158-0.739-0.805-1.227-0.137c-1.401-0.608-1.716-1.856-1.881-3.191c0.283-0.436,0.617-0.85,0.825-1.319
					C48.48,160.069,48.332,159.738,48.295,159.457z"/>
				<path fill-rule="evenodd" clip-rule="evenodd" d="M55.604,156.296c0.232-0.019,0.516,0.041,0.687-0.071
					c1-0.649,2.104-1.006,3.223-0.628c0.549,0.185,0.768,3.517,0.335,4.272c-0.584,1.023-1.235,2.012-1.92,2.971
					c-0.469,0.654-1.891,0.892-2.632,0.483c-0.555-0.307-1.07-0.683-1.604-1.028c0.158-0.396,0.805-0.739,0.137-1.227
					C54.849,159.635,54.803,157.809,55.604,156.296z"/>
				<path fill-rule="evenodd" clip-rule="evenodd" d="M41.644,154.491c0.049-0.076,0.108-0.148,0.146-0.229
					c0.186-0.393,0.366-0.787,0.549-1.18c-0.638-0.125-1.15,0.01-1.508,0.618c-0.417,0.705-0.848,1.407-1.354,2.046
					c-0.124,0.155-0.628,0.159-0.855,0.04c-0.265-0.138-0.631-0.675-0.59-0.721c1.1-1.25,1.328-3.166,3.116-3.913
					c1.052-0.44,1.879-0.134,1.939,1.06c0.021,0.416-0.144,0.685,0.41,0.423c0.303-0.142,0.559-0.437,0.868-0.496
					c0.31-0.059,0.669,0.063,0.977,0.182c0.045,0.017-0.073,0.46-0.118,0.705c-0.097,0.531-1.158,0.84-0.363,1.576
					c-1.02,0.756-1.813,1.721-2.565,2.73c-0.042,0.055-0.303-0.054-0.462-0.087c-0.054-0.254-0.108-0.509-0.164-0.763
					c-0.055-0.255-0.109-0.51-0.163-0.764C41.665,155.322,42.312,154.979,41.644,154.491z"/>
				<path fill-rule="evenodd" clip-rule="evenodd" d="M50.196,151.476c0.611-0.607,1.413-1.525,2.346-2.284
					c0.687-0.558,1.49-0.113,1.492,0.776c0.001,0.673,0.004,1.425-0.278,2.001c-0.555,1.134-1.456,2.072-1.565,3.448
					c-0.06,0.751-0.875,0.99-1.478,0.877c-0.417-0.078-0.934-0.58-1.074-1.002C49.242,154.099,49.198,152.869,50.196,151.476z"/>
				<path fill-rule="evenodd" clip-rule="evenodd" d="M60.734,150.408c-1.316-1.131-2.643-1.343-4.064-0.145
					c-0.379,0.321-0.886,0.514-1.362,0.695c-0.484,0.183-0.584,0.215-0.577-0.531c0.021-1.749,1.119-2.433,2.395-3.017
					c0.569-0.259,1.237-0.322,1.869-0.415c0.91-0.133,1.828-0.277,2.738-0.26c0.19,0.003,0.031,2.646-0.235,3.51
					C61.243,150.299,60.988,150.354,60.734,150.408z"/>
				<path fill-rule="evenodd" clip-rule="evenodd" d="M54.019,163.822c0.296-0.028,0.661-0.18,0.875-0.061
					c0.628,0.35,1.15,0.668,1.982,0.499c0.828-0.168,1.267-0.585,1.609-1.243c0.269-0.517,0.568-0.536,1.065-0.242
					c0.614,0.363,0.68,0.689,0.266,1.266c-0.636,0.884-1.184,1.828-1.791,2.733c-0.765,1.142-2.74,1.665-3.93,1.018
					c-0.156-0.085-0.271-0.432-0.24-0.633c0.067-0.448,0.908-0.774,0.193-1.346c0.158-0.396,0.804-0.739,0.136-1.227
					C54.129,164.331,54.074,164.076,54.019,163.822z"/>
				<path fill-rule="evenodd" clip-rule="evenodd" d="M52.793,163.685c0.409,0.046,0.818,0.091,1.226,0.137
					c0.055,0.254,0.11,0.509,0.164,0.764c-0.158,0.396-0.805,0.739-0.136,1.227c-0.146,0.224-0.271,0.464-0.439,0.669
					c-0.535,0.653-1.036,1.772-1.641,1.836c-1.187,0.125-2.598,0.236-3.566-0.898c0.41-0.719-0.32-0.767-0.627-1.064
					c0.146-0.225,0.459-0.497,0.41-0.668c-0.307-1.092,0.205-0.894,0.858-0.617c0.079,0.034,0.261-0.174,0.397-0.269
					c0.396,0.158,0.737,0.805,1.227,0.137C51.859,165.343,52.317,164.5,52.793,163.685z"/>
				<path fill-rule="evenodd" clip-rule="evenodd" d="M61.497,150.245c1.04,1.007,1.19,1.71,0.653,3.055
					c-0.255,0.054-0.509,0.109-0.763,0.163c-1.081-0.383-1.091,1.542-2.146,1.041c-1.083-0.515-1.687,0.618-2.63,0.644
					c-0.347,0.01-0.672,0.745-1.007,1.149c-0.076-0.05-0.228-0.12-0.22-0.146c0.612-2.234,2.133-3.813,3.87-5.202
					c0.389-0.311,0.981-0.366,1.48-0.54C60.988,150.354,61.243,150.299,61.497,150.245z"/>
				<path fill-rule="evenodd" clip-rule="evenodd" d="M62.15,153.299c0.532,0.245,1.022,0.665,0.838,1.234
					c-0.579,1.798-0.104,3.74-0.806,5.498c-0.261,0.653-0.587,1.311-1.029,1.847c-0.239,0.289-0.785,0.325-1.193,0.474
					c-0.078-0.414-0.189-0.825-0.22-1.242c-0.011-0.145,0.179-0.306,0.28-0.457c1.095-1.624,1.432-3.38,0.767-5.238
					c-0.311-0.867,0.25-1.35,0.601-1.952C61.641,153.408,61.896,153.354,62.15,153.299z"/>
				<path fill-rule="evenodd" clip-rule="evenodd" d="M45.104,161.337c-1.43-0.441-1.425-2.079-2.404-2.903
					c-0.081-0.068-0.07-0.366,0.009-0.486c0.565-0.867,1.027-1.793,2.079-2.272c0.585-0.267,0.858,0.069,1.141,0.319
					c0.161,0.143,0.159,0.581,0.089,0.85c-0.099,0.38-0.656,0.708-0.041,1.112c-0.541,0.671-0.588,1.335,0.026,1.991
					c0.054,0.254,0.108,0.509,0.164,0.764C45.813,160.919,45.458,161.127,45.104,161.337z"/>
				<path fill-rule="evenodd" clip-rule="evenodd" d="M45.978,157.956c0.487-0.752,0.95-1.522,1.472-2.25
					c0.262-0.365,0.633-1.3,1.04-0.612c0.298,0.502,1.494,0.915,0.746,1.914c-0.429,0.572-0.814,1.183-1.154,1.813
					c-0.074,0.135,0.136,0.421,0.214,0.638c-0.282,0.436-0.617,0.85-0.825,1.319c-0.097,0.222,0.051,0.553,0.088,0.835
					c-0.297,0.306-0.345,1.037-1.064,0.627c-0.109-0.509-0.218-1.018-0.327-1.527c-0.055-0.254-0.109-0.509-0.164-0.764
					C46.545,159.276,46.592,158.611,45.978,157.956z"/>
				<path fill-rule="evenodd" clip-rule="evenodd" d="M58.524,150.336c-0.017,0.175,0.019,0.46-0.059,0.497
					c-1.606,0.747-2.053,2.433-3.025,3.689c-0.111,0.144-0.191,0.314-0.303,0.459c-0.449,0.574-1.936,1.042-2.251,0.654
					c-0.583-0.717,0.067-1.253,0.383-1.834c1.039-1.91,3.078-2.412,4.765-3.405C58.164,150.319,58.358,150.354,58.524,150.336z"/>
				<path fill-rule="evenodd" clip-rule="evenodd" d="M43.083,170.553c-0.682-0.661-1.378-1.308-2.035-1.995
					c-0.14-0.147-0.247-0.584-0.173-0.642c0.973-0.761-0.064-1.737,0.301-2.545c1.031,0.798,2.445,1.156,2.944,2.564
					c0.054,0.255,0.109,0.51,0.163,0.764C43.883,169.317,43.482,169.935,43.083,170.553z"/>
				<path fill-rule="evenodd" clip-rule="evenodd" d="M40.248,164.771c-0.713,0.57-1.528,0.179-2.072-0.108
					c-0.695-0.364-1.231-1.118-1.688-1.803c-0.176-0.264-0.041-0.844,0.128-1.195c0.142-0.293,0.541-0.462,0.826-0.686
					c0.463,0.3,0.927,0.601,1.391,0.901c0.054,0.254,0.108,0.509,0.163,0.764c-0.409,0.719,0.321,0.766,0.627,1.064
					C39.212,164.426,39.942,164.474,40.248,164.771z"/>
				<path fill-rule="evenodd" clip-rule="evenodd" d="M39.869,159.262c-0.06-1.665-0.22-3.359,1.09-4.693
					c0.124-0.127,0.452-0.057,0.685-0.079c-0.158,0.397-0.806,0.738-0.137,1.227c0.054,0.254,0.108,0.509,0.163,0.764
					c0.055,0.254,0.109,0.509,0.164,0.763c-0.381,0.588-0.727,1.205-1.162,1.748C40.522,159.178,40.143,159.177,39.869,159.262z"/>
				<path fill-rule="evenodd" clip-rule="evenodd" d="M45.523,155.03c-0.622-0.244-0.722-0.637-0.218-1.095
					c0.377-0.344,0.318-1.399,1.284-0.845c0.894,0.512,1.069,1.348,0.468,2.185C46.692,155.78,46.692,155.78,45.523,155.03z"/>
				<path fill-rule="evenodd" clip-rule="evenodd" d="M43.29,170.687c0.012,0.137,0.024,0.274,0.036,0.413
					c-0.117-0.035-0.327-0.062-0.331-0.105c-0.011-0.145,0.053-0.294,0.088-0.442C43.151,170.598,43.22,170.643,43.29,170.687z"/>
			</g>
			<g>
				<path fill-rule="evenodd" clip-rule="evenodd" d="M310.947,161.419c1.237,1.957,2.769,3.662,4.62,5.037
					c1.451,1.08,2.19,2.506,2.366,4.229c0.155,1.511,1.094,2.789,1.043,4.387c-0.05,1.549,0.384,3.112,0.368,4.665
					c-0.009,1.12,0.916,0.608,1.307,1c0.456,0.453,0.556,0.992-0.05,1.169c-0.64,0.188-1.56,0.44-1.994,0.142
					c-1.77-1.223-3.612-2.528-3.366-5.1c0.169-1.768-0.909-3.247-1.059-4.936c-0.01-0.104-0.223-0.189-0.341-0.284
					c-0.061,0.16-0.163,0.316-0.174,0.479c-0.146,2.083-0.957,4.11-0.512,6.242c0.038,0.18,0.126,0.446,0.043,0.536
					c-0.763,0.824-0.077,1.909-0.534,2.777c-1.134-0.346-1.156-1.574-1.509-2.334c-1.327-2.859-3.254-5.658-2.216-9.117
					c-1.165-1,0.05-3.203-1.925-3.825c-0.104-0.033-0.064-0.519-0.091-0.793c0.183-0.018,0.366-0.035,0.55-0.053
					c0.2,0.165,0.402,0.331,0.603,0.496c0.201,0.166,0.402,0.331,0.603,0.497c-0.005,0.861,0.371,1.411,1.262,1.541
					c0.199,0.166,0.401,0.332,0.602,0.496c0.301,0.847,0.911,1.11,1.756,0.939c0.123,0.408-0.171,1.079,0.924,1.181
					c0.172,0.038,0.075-0.06-0.022-0.159c-0.073,0.089-0.147,0.179-0.221,0.269c0.116,0.074,0.229,0.159,0.354,0.211
					c0.022,0.009,0.101-0.117-0.11-0.322c-0.391-0.543-0.097-1.214-0.924-1.181c-0.301-0.847-0.911-1.11-1.756-0.939
					c-0.2-0.165-0.402-0.331-0.602-0.496c0.004-0.861-0.372-1.411-1.262-1.541c-0.2-0.166-0.401-0.331-0.603-0.497
					c-0.2-0.165-0.402-0.331-0.603-0.496c-0.652-1.665-1.185-2.071-2.636-1.959c-1.001,0.077-1.998,0.212-3,0.279
					c-0.485,0.033-0.372-0.063-0.879-1.194c-0.246-0.547-0.297-1.462-1.444-1.469c-0.677-0.004-1.371-0.674-2.015-1.109
					c-0.195-0.132-0.407-0.561-0.33-0.708c0.147-0.281,0.469-0.555,0.771-0.636c0.14-0.036,0.484,0.355,0.588,0.612
					c0.152,0.377-0.043,0.974,0.687,0.882c0.503-0.063,0.827-0.039,1.085-0.797c0.452-1.32,1.676-1.7,3.175-1.49
					c1.099,0.155,2.201,0.297,3.303,0.444c0.127,0.818,0.728,0.4,1.152,0.443c0.201,0.165,0.402,0.331,0.604,0.496
					c0.2,0.166,0.401,0.331,0.603,0.496c0.2,0.165,0.402,0.331,0.604,0.496c0.201,0.166,0.402,0.331,0.603,0.496
					C310.544,161.088,310.746,161.254,310.947,161.419z M311.697,163.887c-0.097-0.097-0.194-0.195-0.291-0.294
					c-0.073,0.09-0.147,0.18-0.221,0.27c0.115,0.073,0.228,0.158,0.354,0.211c0.021,0.01,0.1-0.116-0.625-0.433
					c0.082-0.008,0.164-0.016,0.246-0.024c-0.066-0.137-0.109-0.294-0.206-0.4c-0.03-0.032-0.213,0.079-0.324,0.123
					C310.725,163.44,310.82,163.541,311.697,163.887z M317.096,178.587c-0.115-0.156-0.252-0.344-0.389-0.531
					c-0.077,0.094-0.237,0.219-0.217,0.275c0.101,0.268,0.251,0.516,0.385,0.771c0.063-0.146,0.126-0.293-0.794-0.765
					c0.209-0.312,0.344-0.421,0.332-0.51c-0.033-0.237-0.127-0.465-0.197-0.697c-0.117,0.043-0.339,0.098-0.336,0.127
					C315.913,177.552,315.982,177.843,317.096,178.587z M302.089,161.767c0.156-0.115,0.345-0.252,0.531-0.389
					c-0.094-0.077-0.219-0.238-0.274-0.218c-0.268,0.102-0.517,0.252-0.771,0.385c0.147,0.063,0.293,0.125,1.021-0.423
					c0.169-0.157,0.34-0.313,0.509-0.47c-0.205-0.209-0.411-0.419-0.861-0.605c0.082-0.008,0.164-0.017,0.246-0.024
					c-0.065-0.137-0.109-0.294-0.206-0.4c-0.03-0.032-0.212,0.079-0.324,0.124c0.095,0.1,0.189,0.201,0.53,0.277
					C302.526,160.39,302.56,160.755,302.089,161.767z M306.94,160.145c0.126,0.818,0.728,0.4,1.688,0.713
					c-0.098-0.097-0.195-0.196-0.291-0.294c-0.073,0.089-0.148,0.179-0.222,0.269c0.116,0.074,0.229,0.159,0.355,0.211
					c0.021,0.009,0.099-0.116-0.38-0.457c-0.126-0.818-0.728-0.4-1.397-0.419C306.776,160.161,306.858,160.152,306.94,160.145
					c-0.066-0.137-0.109-0.294-0.207-0.4c-0.029-0.032-0.212,0.078-0.323,0.123C306.503,159.968,306.599,160.068,306.94,160.145z
					 M302.643,162.425c-0.082-0.067-0.148-0.122-0.215-0.177c-0.05,0.128-0.119,0.253-0.136,0.385
					c-0.006,0.046,0.122,0.109,0.189,0.164C302.536,162.671,302.59,162.546,302.643,162.425z"/>
				<path fill-rule="evenodd" clip-rule="evenodd" d="M306.702,146.299c0.911,0.497,1.938,0.865,2.694,1.537
					c0.523,0.464,0.826,1.323,0.95,2.052c0.259,1.534,0.401,3.096,0.463,4.652c0.039,1.033-0.499,2.228-0.134,3.072
					c0.399,0.927,0.631,1.813,0.716,2.773c0.036,0.397,0.309,0.954-0.444,1.034c-0.201-0.165-0.402-0.331-0.604-0.496
					c-0.2-0.165-0.401-0.331-0.603-0.496c-0.201-0.165-0.403-0.331-0.604-0.496c-0.201-0.165-0.402-0.331-0.603-0.496
					c-0.201-0.165-0.402-0.331-0.604-0.496c-0.127-0.818-0.728-0.4-1.152-0.443c-0.151-0.208-0.261-0.476-0.459-0.615
					c-1.69-1.187-1.503-0.982-1.271-2.535c0.229-1.544,0.709-3.064,0.432-4.677c-0.239-1.39-0.368-2.812,1.287-3.577
					C306.85,147.054,306.728,146.573,306.702,146.299z M308.941,152.212c0.039,0.132,0.16,0.547,0.28,0.963
					c0.736-0.325,0.155-0.888,0.222-1.331c0.052-0.348-0.043-0.72-0.096-1.078c-0.012-0.067-0.154-0.181-0.192-0.166
					c-0.126,0.052-0.33,0.151-0.331,0.235C308.82,151.195,308.877,151.557,308.941,152.212z"/>
				<path fill-rule="evenodd" clip-rule="evenodd" d="M306.069,146.582c-0.225-0.341-0.539-0.62-0.488-0.792
					c0.068-0.228,0.418-0.374,0.647-0.555c0.148,0.268,0.338,0.523,0.422,0.81C306.674,146.125,306.388,146.296,306.069,146.582z"/>
				<path fill-rule="evenodd" clip-rule="evenodd" d="M306.679,165.718c-0.096-0.101-0.191-0.201-0.285-0.301
					c0.112-0.045,0.295-0.155,0.323-0.123c0.1,0.105,0.143,0.263,0.207,0.4C306.842,165.702,306.76,165.709,306.679,165.718z"/>
			</g>
			<g>
				<path fill-rule="evenodd" clip-rule="evenodd" d="M250.544,284.369c-1.437,1.144-2.879,2.283-4.304,3.441
					c-0.19,0.154-0.298,0.412-0.443,0.623c0.292-0.091,0.643-0.108,0.865-0.285c2.815-2.213,5.625-4.436,8.403-6.696
					c0.668-0.543,1.282-0.615,1.935-0.122c1.044,0.786,1.042,1.85-0.162,2.195c-2.023,0.583-3.434,1.991-4.847,3.304
					c-1.622,1.506-3.1,3.223-4.083,5.281c-1.394,2.917-1.768,4.741-1.406,7.596c0.041,0.322,0.286,0.629,0.473,0.919
					c0.383,0.593,0.012,0.848-0.467,0.923c-2.045,0.315-3.979-0.096-5.995-0.568c-1.974-0.461-3.224-1.536-4.116-3.075
					c-0.624-1.08-0.918-2.397-0.892-3.701c0.056-2.663,0.007-5.354,1.479-7.75c0.678-1.105,1.234-2.279,2.359-3.068
					c1.127-0.79,2.163-1.704,3.243-2.559c2.854-2.257,7.804-2.99,11.129-1.61c0.236,0.099,0.329,0.524,0.502,0.788
					c0.104,0.158,0.242,0.432,0.351,0.424c0.242-0.014,0.475-0.174,0.71-0.273c-0.069,0.202-0.078,0.482-0.219,0.597
					C253.568,281.971,252.053,283.167,250.544,284.369z M251.77,281.981c0.048-0.055,0.396-0.444,0.745-0.835
					c-0.765-0.346-0.982,0.457-1.454,0.712c-0.393,0.214-0.724,0.548-1.067,0.842c-0.052,0.044-0.067,0.229-0.034,0.253
					c0.114,0.075,0.313,0.191,0.381,0.145C250.714,282.844,251.06,282.546,251.77,281.981z M248.601,281.827
					c0.221-0.4,0.3-0.545,0.379-0.688c-0.199,0.003-0.422-0.045-0.59,0.028c-0.119,0.053-0.167,0.27-0.245,0.413
					C248.332,281.681,248.519,281.782,248.601,281.827z M250.454,280.966c0.077-0.233,0.128-0.393,0.181-0.552
					c-0.236,0.07-0.498,0.101-0.699,0.227c-0.108,0.07-0.113,0.303-0.165,0.46C250.011,281.055,250.25,281.007,250.454,280.966z"/>
				<path fill-rule="evenodd" clip-rule="evenodd" d="M266.442,301.587c-2.086,1.583-4.313,2.606-6.873,3.188
					c-2.843,0.646-5.532,0.046-8.22-0.522c-0.803-0.171-2.043,0.01-2.545-1.222c-0.1-0.246-1.095-0.025-1.024-0.864
					c0.418,0.057,0.942-0.028,1.237,0.193c1.079,0.81,2.211,0.175,3.309,0.26c2.864,0.215,5.506-0.765,7.868-2.062
					c2.303-1.262,4.301-3.142,6.269-4.931c1.126-1.024,2.233-2.285,2.794-3.664c0.819-2.018,2.145-4.1,0.964-6.472
					c-0.071-0.145-0.045-0.338-0.065-0.508c0.221,0.126,0.568,0.205,0.64,0.389c0.467,1.221,1.184,2.4,0.479,3.805
					c-0.304,0.604-0.095,0.997,0.69,1.252c0.59,0.191,0.679,0.957,0.543,1.653c-0.399,2.063-1.219,3.974-2.449,5.629
					C269.012,299.121,267.66,300.303,266.442,301.587z M270.051,293.503c-0.132-0.139-0.274-0.316-0.297-0.304
					c-0.205,0.127-0.392,0.285-0.567,0.45c-0.007,0.009,0.194,0.28,0.216,0.27C269.617,293.808,269.813,293.665,270.051,293.503z
					 M268.18,294.88c0.025,0.091,0.081,0.296,0.138,0.502c0.158-0.045,0.381-0.043,0.458-0.148c0.108-0.148,0.112-0.374,0.159-0.567
					C268.778,294.711,268.62,294.756,268.18,294.88z M270.649,291.042c-0.012,0.105-0.021,0.191-0.03,0.277
					c0.133-0.029,0.277-0.038,0.396-0.096c0.042-0.021,0.026-0.163,0.036-0.249C270.915,290.998,270.779,291.022,270.649,291.042z
					 M270.531,292.095c-0.087-0.01-0.222-0.058-0.251-0.021c-0.083,0.102-0.125,0.24-0.182,0.365
					c0.087,0.009,0.221,0.059,0.25,0.021C270.431,292.358,270.472,292.219,270.531,292.095z"/>
				<path fill-rule="evenodd" clip-rule="evenodd" d="M250.083,297.444c0.181-3.021,2.3-5.019,3.872-7.3
					c0.189-0.274,0.579-0.411,0.876-0.61c0.077,0.271,0.135,0.55,0.253,0.803c0.019,0.038,0.319-0.041,0.48-0.091
					c0.082-0.025,0.146-0.109,0.218-0.165l2.059-1.778c1.836-1.206,3.945-1.614,6.039-2.066c0.417-0.089,0.85-0.127,1.251-0.263
					c0.485-0.164,0.945-0.406,1.415-0.615c0.035,0.762-0.115,1.431-0.887,1.794c0.243,1.186-1.531,0.439-1.373,1.357
					c0.21,1.222-1.077,1.057-1.367,1.693c-0.358,0.787-0.406,1.71-0.745,2.508c-0.159,0.373-0.687,0.589-1.046,0.874
					c-0.472-0.514-0.894-0.203-0.979,0.239c-0.209,1.063-0.896,1.403-1.833,1.63c-0.484,0.116-0.973,0.421-1.345,0.767
					c-0.611,0.568-1.237,0.64-1.954,0.321c-0.229-0.102-0.437-0.253-0.655-0.381c0.128,0.31,0.266,0.615,0.378,0.931
					c0.081,0.229,0.132,0.47,0.194,0.706c-0.216-0.133-0.422-0.284-0.65-0.391c-0.716-0.338-1.089-0.202-1.489,0.608
					c-0.229,0.459-1.161,0.63-1.812,0.798c-0.377,0.098-0.823-0.066-1.238-0.112C249.857,298.282,249.97,297.863,250.083,297.444
					c1.199,0.061,1.949-0.539,2.159-1.72c0.726-0.465,0.981-1.08,0.606-1.896c0.276-0.326,0.998-0.444,0.488-1.419
					c-0.062-0.165-0.092-0.029-0.121,0.104c0.115,0.015,0.23,0.027,0.346,0.04c-0.001-0.137,0.009-0.277-0.016-0.413
					c-0.003-0.023-0.152-0.019-0.209,0.269c-0.242,0.624-0.966,0.743-0.488,1.419c-0.725,0.464-0.981,1.078-0.606,1.896
					C251.521,296.298,250.802,296.87,250.083,297.444z M259.285,294.246c0.012-0.104,0.022-0.189,0.032-0.275
					c-0.135,0.027-0.28,0.038-0.397,0.096c-0.043,0.021-0.025,0.161-0.035,0.247C259.019,294.291,259.154,294.268,259.285,294.246z
					 M261.444,292.527c0.012-0.104,0.021-0.19,0.032-0.277c-0.136,0.029-0.279,0.039-0.398,0.096
					c-0.042,0.021-0.023,0.161-0.033,0.249C261.179,292.572,261.313,292.549,261.444,292.527z"/>
				<path fill-rule="evenodd" clip-rule="evenodd" d="M262.251,294.893c-0.233,0.021-0.462,0.043-0.689,0.063
					c0.068-0.156,0.097-0.349,0.209-0.46c0.986-0.977,1.724-2.177,2.132-3.436c0.385-1.188,2.059-1.232,1.993-2.633
					c0.153,0.068,0.345,0.104,0.454,0.215c0.108,0.113,0.232,0.361,0.181,0.454c-0.455,0.81-0.888,1.643-1.446,2.377
					C264.199,292.638,263.22,293.733,262.251,294.893z"/>
				<path fill-rule="evenodd" clip-rule="evenodd" d="M260.001,295.751c-0.207,0.22-0.358,0.426-0.558,0.564
					c-0.062,0.043-0.248-0.088-0.378-0.141c0.15-0.199,0.279-0.419,0.46-0.583C259.576,295.547,259.777,295.67,260.001,295.751z"/>
				<path fill-rule="evenodd" clip-rule="evenodd" d="M258,296.178c0.105,0.013,0.19,0.022,0.277,0.032
					c-0.058,0.124-0.099,0.263-0.183,0.364c-0.029,0.039-0.163-0.011-0.249-0.021C257.898,296.427,257.951,296.301,258,296.178z"/>
				<path fill-rule="evenodd" clip-rule="evenodd" d="M261.282,293.778c-0.032,0.136-0.065,0.27-0.098,0.403
					c-0.099-0.07-0.29-0.161-0.279-0.204c0.034-0.139,0.143-0.263,0.223-0.393C261.179,293.65,261.231,293.714,261.282,293.778z"/>
			</g>
			<g>
				<path fill-rule="evenodd" clip-rule="evenodd" d="M69.566,101.566c-0.365-1.54-0.4-2.548-0.355-3.553
					c0.046-1.028,0.465-1.229,1.693-1.101c0.425,0.044,0.879-0.19,1.321-0.297c0.096,0.69,0.215,1.377,0.281,2.07
					c0.043,0.453,0.029,0.915,0.004,1.371c-0.068,1.222,0.385,2.211,1.249,3.056c1.179,1.152,2.316,2.344,3.502,3.487
					c1.793,1.729,1.521,3.865,1.084,5.95c-0.25,1.187-1.281,1.703-2.493,1.734c-1.063,0.027-2.132-0.197-2.941,0.919
					c-0.462,0.636-1.514-0.129-2.253,0.538c-0.261,0.236-1.225-0.202-1.799-0.477c-0.184-0.088-0.146-0.64-0.21-0.979
					c0.392-0.075,0.984,0.251,1.072-0.416c0.027-0.203-0.336-0.458-0.52-0.688c-0.184-0.184-0.368-0.369-0.675-0.553
					c-0.041,0,0.042,0,0.123,0c-0.051-0.143-0.079-0.303-0.166-0.418c-0.027-0.035-0.218,0.057-0.334,0.091
					c0.084,0.109,0.169,0.218,0.377,0.327c0.308,0.184,0.491,0.369,0.675,0.553c-0.184,0.368-0.368,0.736-0.553,1.104
					c-1.293-0.184-2.606-0.284-3.875-0.578c-1.139-0.263-1.712-1.325-1.968-2.291c-0.483-1.81-0.599-3.73,0.943-5.168
					c1.165-1.085,1.991-2.539,3.62-3.15C68.255,102.765,68.021,101.234,69.566,101.566c0.154,0.05,0.026-0.241-0.104-0.533
					c-0.261,0.451-0.532,0.897-0.77,1.362c-0.017,0.034,0.266,0.302,0.319,0.276C69.313,102.525,69.587,102.322,69.566,101.566z
					 M74.491,112.673c-0.106,0.086-0.213,0.174-0.321,0.261c0.082,0.082,0.164,0.165,0.247,0.247
					c0.084-0.109,0.18-0.213,0.245-0.333c0.012-0.021-0.106-0.111-0.491,0.579c0-0.082,0-0.164,0-0.246
					c-0.143,0.051-0.303,0.079-0.417,0.167c-0.035,0.026,0.056,0.218,0.091,0.334C73.953,113.597,74.062,113.511,74.491,112.673z
					 M67.313,104.942c-0.107,0.087-0.213,0.175-0.321,0.261c0.082,0.083,0.164,0.165,0.246,0.247
					c0.085-0.109,0.18-0.212,0.245-0.332c0.011-0.021-0.107-0.111-0.491,0.579c0-0.083,0-0.165,0-0.247
					c-0.143,0.051-0.304,0.08-0.418,0.167c-0.035,0.026,0.058,0.218,0.091,0.334C66.775,105.867,66.883,105.781,67.313,104.942z
					 M68.417,103.287c-0.107,0.086-0.213,0.173-0.32,0.26c0.082,0.083,0.164,0.165,0.246,0.246c0.084-0.109,0.18-0.212,0.245-0.332
					c0.011-0.021-0.107-0.112-0.491,0.578c0-0.083,0-0.165,0-0.247c-0.143,0.051-0.303,0.079-0.419,0.167
					c-0.035,0.026,0.058,0.218,0.091,0.334C67.879,104.209,67.987,104.125,68.417,103.287z M76.685,107.659c0.083,0,0.165,0,0.246,0
					c-0.051-0.143-0.079-0.303-0.166-0.418c-0.027-0.034-0.219,0.057-0.334,0.091c0.084,0.109,0.169,0.219,0.5,0.884
					c0,0.634-0.101,1.042,0.028,1.357c0.127,0.313,0.486,0.531,0.743,0.791c0.111-0.375,0.329-0.758,0.3-1.122
					c-0.023-0.303-0.352-0.575-0.514-0.877c-0.12-0.221-0.19-0.47-0.282-0.706C77.079,107.917,76.95,108.175,76.685,107.659z
					 M75.283,108.507c-0.017-0.29,0.132-0.874-0.096-1.156c-0.681-0.842-1.504-1.57-2.289-2.324c-0.042-0.04-0.346,0.069-0.359,0.14
					c-0.208,1.099-0.708,2.281-0.462,3.276c0.158,0.635,0.386,1.287,0.454,1.976c0.016,0.159,0.279,0.44,0.359,0.418
					c0.246-0.069,0.411-0.681,0.723-0.07c0.113,0.222,0.163,0.477,0.242,0.716c0.105-0.202,0.238-0.395,0.309-0.608
					c0.108-0.32,0.194-0.944,0.255-0.94C75.489,110.01,75.246,109.251,75.283,108.507z M68.097,110.004
					c0-0.454,0.022-0.91-0.014-1.361c-0.011-0.15-0.17-0.289-0.263-0.432c-0.092,0.143-0.259,0.285-0.264,0.431
					c-0.026,0.816-0.026,1.635,0,2.452c0.005,0.146,0.171,0.287,0.264,0.431c0.092-0.144,0.247-0.28,0.264-0.432
					C68.123,110.733,68.097,110.367,68.097,110.004z M71.55,114.285c0.271,0,0.55,0.036,0.813-0.011
					c0.242-0.042,0.469-0.173,0.702-0.265c-0.233-0.092-0.462-0.246-0.702-0.264c-0.54-0.04-1.087-0.032-1.628,0
					c-0.148,0.009-0.287,0.172-0.43,0.264c0.144,0.092,0.277,0.238,0.432,0.264C71.001,114.316,71.279,114.285,71.55,114.285z
					 M69.088,105.429c0.043-0.299,0.109-0.545,0.094-0.787c-0.003-0.076-0.224-0.139-0.344-0.208
					c-0.063,0.241-0.154,0.479-0.17,0.723C68.663,105.222,68.886,105.303,69.088,105.429z M68.423,105.925
					c-0.143,0.216-0.321,0.365-0.307,0.494c0.026,0.235,0.164,0.458,0.257,0.688c0.092-0.14,0.263-0.282,0.259-0.419
					C68.625,106.452,68.51,106.218,68.423,105.925z M65.932,112.696c-0.096-0.186-0.208-0.403-0.32-0.62
					c-0.092,0.139-0.271,0.289-0.257,0.417c0.026,0.235,0.165,0.458,0.257,0.688C65.705,113.041,65.797,112.902,65.932,112.696z
					 M65.968,106.911c0.073,0.073,0.134,0.134,0.196,0.196c0.062-0.123,0.144-0.241,0.173-0.371
					c0.009-0.046-0.111-0.121-0.173-0.182C66.098,106.674,66.031,106.794,65.968,106.911z M65.808,108.015
					c-0.063-0.116-0.129-0.236-0.196-0.356c-0.061,0.062-0.182,0.136-0.172,0.182c0.029,0.13,0.111,0.248,0.172,0.371
					C65.674,108.149,65.735,108.088,65.808,108.015z M74.803,111.88c0.073,0.073,0.135,0.134,0.196,0.196
					c0.062-0.123,0.144-0.241,0.173-0.371c0.01-0.046-0.111-0.12-0.173-0.182C74.933,111.644,74.866,111.764,74.803,111.88z"/>
				<path fill-rule="evenodd" clip-rule="evenodd" d="M57.054,112.076c2.059,1.231,4.157,2.404,6.165,3.713
					c1.394,0.908,2.703,1.907,4.487,1.823c0.115-0.006,0.24,0.19,0.36,0.293c-0.15,0.081-0.292,0.18-0.449,0.242
					c-2.371,0.924-4.714,1.931-7.127,2.727c-1.214,0.4-2.392-0.38-3.461-0.878c-1.27-0.591-1.606-2.095-2.065-3.239
					c-0.421-1.053-0.415-2.471,0.434-3.577c0.153-0.061,0.306-0.122,0.458-0.182c-0.152-0.124-0.305-0.247-0.458-0.371
					c0.047-0.826,0.686-0.469,1.104-0.552c0.062,0.152,0.121,0.305,0.182,0.458C56.807,112.381,56.93,112.229,57.054,112.076z
					 M55.95,115.362c0.021,0.072,0.151,0.65,0.367,1.195c0.069,0.178,0.36,0.269,0.549,0.4c0.063-0.243,0.257-0.617,0.167-0.707
					c-0.658-0.66-0.784-1.309-0.182-2.069c0.044-0.055-0.17-0.434-0.222-0.425c-0.235,0.043-0.56,0.112-0.652,0.282
					C55.862,114.245,55.95,114.561,55.95,115.362z M57.409,117.677c-0.116,0.064-0.235,0.13-0.355,0.196
					c0.062,0.062,0.136,0.183,0.182,0.173c0.129-0.029,0.248-0.111,0.371-0.173C57.544,117.813,57.483,117.75,57.409,117.677z"/>
				<path fill-rule="evenodd" clip-rule="evenodd" d="M56.501,112.076c0.125-0.153,0.247-0.305,0.371-0.458
					c0.061,0.153,0.121,0.305,0.182,0.458C56.87,112.076,56.686,112.076,56.501,112.076z"/>
			</g>
			<g>
				<path fill-rule="evenodd" clip-rule="evenodd" d="M240.984,63.887c0.184-0.23,0.413-0.439,0.54-0.698
					c0.145-0.295,0.197-0.636,0.291-0.956c0.418,0.316,0.836,0.633,1.254,0.949c-0.88,0.85,0.302,1.209,0.511,1.193
					c0.665-0.051,1.066,1.263,1.815,0.329c0.045-0.055,0.006-0.176,0.006-0.266c0.834,0.028,1.023,1.486,1.943,1.024
					c0.594-0.296,0.846-0.692,0.832,0.308c0,0.083,0.286,0.264,0.323,0.237c0.452-0.32,0.883-0.672,1.319-1.017
					c0.084,0,0.22,0.034,0.246-0.004c0.687-1.019,0.684-1.021,1.409,0.128c0,0.042,0-0.042,0-0.124
					c-0.143,0.052-0.303,0.079-0.418,0.167c-0.035,0.026,0.058,0.218,0.091,0.334c0.109-0.084,0.219-0.169,0.327-0.377
					c0.802-0.744,0.482-0.65,0.287-1.316c-0.279-0.952-1.173-0.918-1.605-1.506c-0.93,0.787-0.596-1.952-1.723-0.618
					c-0.769-0.367-1.543-0.72-2.301-1.107c-0.265-0.136-0.488-0.352-0.731-0.531c0.233-0.189,0.617-0.58,0.676-0.536
					c0.631,0.472,1.062-1.068,1.848-0.107c0.285,0.35,1.434-0.116,1.431,0.993c0.357-0.121,0.923-0.451,1.042-0.332
					c1.004,1.003,2.945,0.442,3.509,2.122c0.999,0.093,1.145,1.297,2.073,1.552c0.83,0.229-0.191,0.81,0.088,1.133
					c0.243,0.284,0.898,0.485,0.88,0.674c-0.076,0.768,0.356,1.172,0.815,1.627c0.108,0.107,0.056,0.377,0.078,0.573
					c-1.484-0.197-0.403,1.634-1.143,1.612c-1.177-0.037-0.682,1.09-1.298,1.46c-0.588,0.354-0.896,0.921-1.687,0.3
					c-0.251-0.196-0.843-0.184-1.215,0.567c-0.434,0.875-1.44,1.491-2.262,2.14c-0.865,0.682-1.582,1.292-1.588,2.601
					c-0.003,0.884-0.471,2.142-1.414,2.284c-0.799,0.121-1.771-0.512-2.576-0.967c-0.54-0.305-1.065-0.815-1.335-1.361
					c-0.177-0.362,0.108-0.952,0.187-1.44c1.059,0.268,0.601-0.917,1.123-1.172c0.209-0.102,0.393-0.256,0.588-0.388
					c0.056,0.25,0.202,0.523,0.144,0.742c-0.107,0.405-0.444,0.765-0.493,1.166c-0.094,0.764,0.289,0.964,0.972,0.599
					c0.178-0.096,0.525-0.229,0.559-0.182c0.18,0.257,0.284,0.566,0.414,0.857c0.08-0.335,0.147-0.673,0.243-1.003
					c0.642-2.216,0.61-2.281,2.732-3.354c1.217-0.616,1.39-1.936,2.229-2.779c0.046-0.046,0.043-0.223-0.002-0.262
					c-0.103-0.089-0.325-0.215-0.362-0.18c-0.603,0.567-1.156,1.188-1.775,1.735c-0.593,0.523-1.238,0.989-1.88,1.453
					c-0.244,0.176-0.539,0.279-0.812,0.415c0.041-0.314-0.018-0.701,0.146-0.927c0.353-0.489,0.146-0.552-0.298-0.595
					c-0.161-0.015-0.312-0.13-0.467-0.2c0.094-0.114,0.171-0.308,0.281-0.327c0.267-0.048,0.55-0.005,0.824-0.017
					c1.34-0.056,1.34-0.059,1.197-1.909c0.055-0.167-0.053-0.08-0.159,0.007c0.081,0.082,0.163,0.164,0.246,0.246
					c0.085-0.109,0.18-0.212,0.245-0.333c0.011-0.021-0.106-0.111-0.332,0.079c-1.298,1.27-2.315,0.188-3.385,0.054
					c-0.405-0.052-0.795-0.231-1.192-0.353c-0.231-0.343,1.351-1.146-0.303-1.156c-0.269-0.001-0.535-0.325-0.802-0.5
					c-0.184-0.184-0.368-0.368-0.676-0.552c-0.04,0,0.042,0,0.124,0c-0.051-0.144-0.079-0.304-0.167-0.419
					c-0.026-0.034-0.218,0.058-0.333,0.091c0.084,0.109,0.168,0.218,0.376,0.328c0.308,0.184,0.492,0.368,0.676,0.552
					c-0.089,0.857,0.232,1.44,1.104,1.657c0.114,0.53,0.323,1.061,0.317,1.588c-0.004,0.589-0.201,1.176-0.317,1.764
					c-0.067,0.334-0.142,0.667-0.212,1c-0.112-0.363-0.303-0.723-0.326-1.092c-0.077-1.253-0.94-2.154-1.396-3.236
					c-0.297-0.707-1.022-0.55-1.65-0.593c-0.686-0.046-2.004-1.317-1.848-1.855c0.156-0.533,0.662-0.964,1.015-1.44
					C240.297,64.356,240.937,64.713,240.984,63.887z"/>
				<path fill-rule="evenodd" clip-rule="evenodd" d="M263.07,63.334c-0.519,0.285,1.599,1.046-0.201,1.15
					c-0.051,0.004-0.061,1.012-0.093,1.012c-0.935,0.007-0.979,0.423-0.279,0.805c0.805,0.439-0.022,1.313,0.245,1.332
					c0.982,0.069,0.633,0.971,0.936,1.234c0.667,0.58,0.937,1.791,2.153,1.644c0.061,0.153,0.121,0.305,0.182,0.458
					c0.124-0.153,0.247-0.305,0.37-0.458c0.525-0.064,1.05-0.128,1.574-0.193c-0.896-0.372-0.019-1.011-0.207-1.587
					c-0.509-1.552-1.351-2.803-2.401-3.983c-0.11-0.124,0.043-0.481,0.074-0.73c0.13,0.042,0.26,0.082,0.39,0.126
					c1.235,0.417,2.054,1.309,2.903,2.263c0.513,0.575-0.179,0.885,0.043,1.195c0.212,0.296,0.615,0.457,0.938,0.674
					c0.788,0.529-0.009,1.39,0.452,2.132c0.265,0.427,0.91,1.4,0.151,2.282c-0.215,0.25,0.374,1.075,0.279,1.576
					c-0.105,0.554-0.626,1.015-0.866,1.561c-0.171,0.387-0.042,1.092-0.282,1.223c-0.541,0.294-1.507,0.643-1.8,0.389
					c-0.724-0.624-0.814,0.42-1.339,0.286c-0.711-0.181-1.619,0.24-1.782-1.025c-0.051-0.383-0.477-0.481-1.159-0.268
					c-0.979,0.308-2.28,0.635-3.348-0.341c-0.211-0.192-0.961,0.177-1.447,0.333c-0.156,0.05-0.248,0.271-0.397,0.374
					c-1.776,1.226-3.03,0.702-3.366-1.412c-0.042-0.269-0.056-0.562,0.006-0.823c0.115-0.497,0.268-0.989,0.45-1.466
					c0.325-0.849,0.755,0.454,1.187-0.047c0.189-0.22,0.623-0.285,0.954-0.307c0.23-0.015,0.473,0.163,0.711,0.255
					c-0.146,0.092-0.288,0.19-0.438,0.275c-0.297,0.171-0.705,0.267-0.867,0.521c-0.228,0.359-1.134,0.432-0.603,1.146
					c0.272,0.364,0.604,0.72,0.988,0.943c0.114,0.067,0.495-0.333,0.758-0.514c0.909-0.626,1.692-1.122,2.982-0.52
					c0.906,0.422,2.168,0.103,3.27,0.061c0.184-0.006,0.404-0.254,0.516-0.445c0.063-0.105-0.019-0.422-0.114-0.468
					c-0.22-0.102-0.596-0.216-0.722-0.108c-1.498,1.28-2.381-0.117-3.411-0.777c-0.132-0.084-0.066-0.476-0.092-0.724
					c0.193,0.05,0.425,0.05,0.577,0.16c0.291,0.21,0.511,0.634,0.813,0.69c0.397,0.073,1.039,0.022,1.228-0.233
					c0.283-0.385-0.02-0.645-0.541-0.896c-0.539-0.258-0.852-0.998-1.247-1.54c-0.476-0.65-0.438-1.205,0.051-1.922
					c0.208-0.309-0.225-1.068-0.396-1.613c-0.042-0.135-0.2-0.233-0.305-0.347c-0.08,0.151-0.245,0.313-0.225,0.451
					c0.215,1.521-0.858,2.593-1.37,3.851c-0.124,0.307-0.897,0.692-1.055,0.583c-0.708-0.489,0.159-0.64,0.339-0.885
					c0.764-1.046,1.174-2.175,0.941-3.459c-0.041-0.226-0.422-0.407-0.667-0.575c-0.573-0.392,0.3-1.096-0.329-1.466
					c0.413-0.733,1.698-0.595,1.721-1.72c0.131,0.043,0.303,0.047,0.384,0.136C261.338,64.743,262.194,63.944,263.07,63.334z
					 M268.018,71.504c-0.127-0.203-0.207-0.425-0.272-0.421c-0.244,0.016-0.482,0.107-0.724,0.169
					c0.069,0.122,0.133,0.342,0.209,0.346C267.472,71.613,267.718,71.547,268.018,71.504z"/>
				<path fill-rule="evenodd" clip-rule="evenodd" d="M245.152,60.843c-0.832-0.321-1.171-0.374-1.379-0.566
					c-0.091-0.086,0.084-0.457,0.138-0.698c0.188,0.114,0.395,0.208,0.558,0.35C244.61,60.054,244.704,60.235,245.152,60.843z"/>
				<path fill-rule="evenodd" clip-rule="evenodd" d="M265.831,70.512c0.124-0.152,0.247-0.305,0.37-0.458
					c0.061,0.153,0.121,0.305,0.182,0.458C266.199,70.512,266.015,70.512,265.831,70.512z"/>
				<path fill-rule="evenodd" clip-rule="evenodd" d="M241.733,61.046c-0.075-0.074-0.136-0.135-0.198-0.196
					c0.123-0.062,0.242-0.144,0.372-0.173c0.045-0.01,0.12,0.111,0.182,0.173C241.967,60.916,241.848,60.982,241.733,61.046z"/>
				<path fill-rule="evenodd" clip-rule="evenodd" d="M243.113,60.929c-0.074,0.074-0.135,0.135-0.197,0.197
					c-0.061-0.123-0.144-0.242-0.172-0.371c-0.011-0.045,0.111-0.12,0.172-0.182C242.983,60.694,243.048,60.813,243.113,60.929z"/>
				<path fill-rule="evenodd" clip-rule="evenodd" d="M262.438,62.427c-0.063,0.115-0.13,0.235-0.195,0.355
					c-0.063-0.061-0.184-0.136-0.174-0.182c0.028-0.129,0.111-0.248,0.174-0.37C262.303,62.292,262.364,62.353,262.438,62.427z"/>
				<path fill-rule="evenodd" clip-rule="evenodd" d="M263.392,62.827c0.063,0.064,0.181,0.154,0.168,0.174
					c-0.064,0.121-0.159,0.224-0.244,0.333c-0.082-0.082-0.165-0.164-0.246-0.246C263.176,63.001,263.284,62.914,263.392,62.827z"/>
				<path fill-rule="evenodd" clip-rule="evenodd" d="M240.737,63.887c-0.084-0.109-0.17-0.218-0.254-0.328
					c0.115-0.033,0.308-0.125,0.334-0.091c0.087,0.115,0.115,0.275,0.167,0.418C240.901,63.887,240.819,63.887,240.737,63.887z"/>
				<path fill-rule="evenodd" clip-rule="evenodd" d="M264.451,63.334c0.061,0.123,0.143,0.241,0.172,0.37
					c0.011,0.045-0.111,0.121-0.172,0.182c-0.062-0.122-0.145-0.241-0.173-0.371C264.267,63.471,264.389,63.396,264.451,63.334z"/>
				<path fill-rule="evenodd" clip-rule="evenodd" d="M239.633,64.439c-0.086-0.109-0.171-0.219-0.255-0.328
					c0.116-0.034,0.308-0.125,0.334-0.091c0.087,0.115,0.115,0.276,0.167,0.419C239.797,64.439,239.715,64.439,239.633,64.439z"/>
				<path fill-rule="evenodd" clip-rule="evenodd" d="M245.155,64.439c-0.085-0.109-0.17-0.219-0.255-0.328
					c0.115-0.034,0.308-0.125,0.334-0.091c0.088,0.115,0.115,0.276,0.167,0.419C245.319,64.439,245.237,64.439,245.155,64.439z"/>
				<path fill-rule="evenodd" clip-rule="evenodd" d="M249.573,64.991c-0.087-0.109-0.171-0.218-0.256-0.327
					c0.116-0.033,0.308-0.125,0.334-0.091c0.088,0.114,0.116,0.275,0.168,0.418C249.736,64.991,249.654,64.991,249.573,64.991z"/>
			</g>
			<g>
				<path fill-rule="evenodd" clip-rule="evenodd" d="M216.946,307.399c1.426-0.572,1.7-0.905,1.459-1.771
					c-0.206-0.752-0.791-1.061-1.92-0.95c-2.388,0.232-4.582,0.863-6.564,2.38c-1.277,0.978-2.865,1.684-4.619,0.86
					c-0.297-0.139-0.679-0.163-1.016-0.141c-3.933,0.252-7.757-0.532-11.501-1.517c-1.472-0.387-2.702-1.665-4.07-2.488
					c-0.242-0.146-0.874-0.144-0.904-0.06c-0.175,0.494-0.265,1.033-0.278,1.557c-0.002,0.095,0.487,0.201,0.749,0.302
					c-0.239,0.094-0.612,0.126-0.688,0.294c-0.121,0.265-0.177,0.781-0.024,0.908c0.564,0.471,0.479,0.668-0.192,0.738
					c-0.146,0.014-0.302-0.171-0.466-0.209c-1.34-0.317-1.34-0.313-1.539,1.063c-0.064,0.449,0.165,0.9,0.6,1.174
					c0.723,0.457,0.692,0.633-0.045,1.557c-0.246,0.308-0.27,0.966-0.526,1.047c-0.327,0.104-0.818-0.392-1.185-0.325
					c-1.271,0.234-2.438-0.182-3.563-0.565c-0.779-0.265-1.082,0.134-1.261,0.586c-0.181,0.461-0.134,1.037-0.091,1.555
					c0.077,0.934,0.777,0.428,1.239,0.499c0.59,0.088,1.175,0.215,1.755,0.349c0.158,0.037,0.297,0.151,0.444,0.231
					c-0.135,0.104-0.26,0.274-0.41,0.303c-0.45,0.086-1.016-0.025-1.34,0.21c-0.337,0.247-1.301,0.548-0.362,1.335
					c0.264,0.224,0.195,0.851,0.266,1.294c0.105,0.661,0.33,0.808,0.721,0.167c0.702-1.15,1.928-1.138,2.875-0.844
					c0.654,0.203,1.207,0.142,1.811,0.177c0.215,0.011,0.421,0.156,0.633,0.238c-0.145,0.095-0.276,0.221-0.433,0.272
					c-0.168,0.06-0.369,0.024-0.544,0.078c-0.878,0.267-1.922-0.126-2.667,0.666c0.895-0.04,1.79-0.109,2.685-0.104
					c0.419,0.002,0.963,0.013,1.231,0.26c0.752,0.687,1.188,0.572,2.028-0.041c1.397-1.021,3.021-1.759,4.861-1.745
					c1.445,0.008,2.59-1.086,4.095-1.07c1.461,0.018,2.92-0.373,4.386-0.452c1.679-0.095,3.388,0.127,5.039-0.104
					c1.534-0.217,3.069-0.717,4.483-1.36c0.636-0.289,0.913-0.241,1.381,0.102c1.673,1.229,3.762,1.064,5.645,1.577
					c1.13,0.31,2.521-0.9,2.815-2.09c0.104-0.416-0.122-0.989,0.089-1.287c0.561-0.792,0.294-0.845-0.47-0.752
					c-3.287,0.397-6.599,0.652-9.86,1.209c-1.812,0.308-3.559-0.368-5.331,0.006c-0.14,0.029-0.315-0.109-0.475-0.17
					c0.191-0.129,0.385-0.366,0.577-0.368c1.409-0.013,2.819-0.807,4.236,0.023c0.189,0.111,0.651,0.061,0.792-0.094
					c0.999-1.085,2.366-0.701,3.567-0.944c2.546-0.514,5.108-0.95,7.655-1.474c1.053-0.217,1.109-0.045,0.751,0.964
					c-0.31,0.871,0.148,1.239,0.967,1.05c0.265-0.061,0.655-0.351,0.678-0.567c0.136-1.4-0.85-2.538-2.419-2.505
					c-1.739,0.037-3.474,0.368-5.21,0.572c-0.85,1.262-2.518,0.462-3.601,1.446c-0.417,0.38-1.64-0.121-2.492-0.232
					c-0.078-0.009-0.146-0.106-0.218-0.164c0.107-0.116,0.191-0.273,0.323-0.341c0.41-0.21,1.198,0.227,1.189-0.704
					c-0.817,0.096-1.803-0.065-2.425,0.335c-2.013,1.298-4.526,1.094-6.539,2.342c-0.229,0.142-0.777-0.246-1.18-0.376
					c-0.238-0.077-0.483-0.133-0.725-0.199c0.225-0.118,0.447-0.333,0.675-0.336c2.436-0.042,4.536-1.193,6.684-2.101
					c1.866-0.785,3.546-1.967,5.463-2.7C216.676,305.197,216.642,305.108,216.946,307.399z M191.177,314.754
					c0.206,0.117,0.372,0.212,0.537,0.304c-0.116,0.113-0.225,0.311-0.346,0.319c-0.229,0.014-0.465-0.082-0.698-0.13
					c0.15-0.146,0.3-0.293,1.014-0.444c-0.457-1.022-1.279-0.379-1.857-0.295c-1.002,0.148-1.932,0.018-2.841-0.298
					c-0.207-0.069-0.279-0.528-0.415-0.811c0.234-0.101,0.613-0.349,0.682-0.282c0.815,0.803,1.729,0.214,2.594,0.232
					c-0.257-0.155-0.494-0.371-0.771-0.453c-0.648-0.191-1.327-0.285-1.966-0.502c-0.126-0.043-0.135-0.456-0.167-0.703
					c-0.002-0.018,0.253-0.126,0.358-0.094c1.905,0.568,3.898,0.555,5.825,0.878c4.326,0.727,8.641,0.911,12.999,0.656
					c0.396-0.022,0.814,0.214,1.207,0.368c0.122,0.048,0.191,0.228,0.286,0.347c-0.146,0.085-0.302,0.255-0.438,0.241
					c-0.678-0.076-1.386-0.396-2.014-0.274C200.707,314.677,196.159,314.237,191.177,314.754z M184.242,315.602
					c0.006,0.023,0.011,0.046,0.015,0.071c0.902-0.106,1.802-0.219,2.705-0.295c0.032-0.003,0.185,0.432,0.127,0.479
					c-0.318,0.27-0.94,0.733-0.996,0.678c-0.539-0.555-1.148-0.33-1.768-0.333c-0.981-0.007-1.97,0.649-2.946-0.01
					C182.333,315.995,183.288,315.797,184.242,315.602z M190.011,308.437c-0.217-0.119-0.458-0.256-0.699-0.392
					c0.233-0.091,0.468-0.258,0.701-0.253c0.267,0.005,0.528,0.161,0.793,0.251C190.583,308.156,190.358,308.267,190.011,308.437z
					 M192.377,308.722c-0.047-0.082-0.153-0.268-0.258-0.45c0.143-0.081,0.297-0.241,0.427-0.222
					c0.182,0.027,0.345,0.185,0.517,0.288C192.92,308.417,192.776,308.498,192.377,308.722z"/>
				<path fill-rule="evenodd" clip-rule="evenodd" d="M212.687,309.009c1.546-0.2,3.18-0.172,4.259-1.61
					c-1.572-0.004-2.854,0.917-4.287,1.357C212.644,308.761,212.676,308.921,212.687,309.009z"/>
				<path fill-rule="evenodd" clip-rule="evenodd" d="M190.899,313.228c-0.264,0.03-0.532,0.036-0.787,0.104
					c-0.096,0.025-0.157,0.183-0.234,0.282c0.144,0.079,0.286,0.218,0.436,0.226c0.261,0.015,0.533-0.021,0.787-0.087
					c0.318-0.083,0.622-0.222,0.933-0.335c-0.29-0.073-0.578-0.154-0.871-0.217C191.08,313.183,190.987,313.216,190.899,313.228z"/>
				<path fill-rule="evenodd" clip-rule="evenodd" d="M193.852,313.667c-0.301-0.053-0.547-0.141-0.782-0.118
					c-0.137,0.011-0.258,0.195-0.387,0.304c0.238,0.065,0.476,0.179,0.714,0.177C193.525,314.028,193.653,313.832,193.852,313.667z"
					/>
			</g>
			<g>
				<path fill-rule="evenodd" clip-rule="evenodd" d="M285.236,253.238c-1.146-0.341-0.351-0.253,0.376,0.018
					c0.743,0.279,1.162,0.32,1.028-0.654c1.755-1.541,3.837-1.801,5.95-1.186c2.295,0.668,3.688,2.158,4.403,4.375
					c0.604,1.871-0.542,4.817-2.491,5.926c-2.188,1.246-3.863,1.208-6.155-0.22c-0.153-0.094-0.457-0.156-0.565-0.07
					c-0.359,0.279-0.671,0.622-0.985,0.956c-2.555,2.73-7.809,2.023-9.225-1.751c-0.358-0.956-0.839-1.971-0.799-2.938
					c0.04-0.962,0.585-1.941,1.052-2.837c0.727-1.399,2.238-1.569,3.551-1.953c0.592-0.174,1.275-0.03,1.918-0.03
					C283.303,252.826,283.314,252.778,285.236,253.238c1.825,0.403,1.737,0.295,1.651,0.188c-0.083,0.083-0.165,0.165-0.247,0.247
					c0.108,0.084,0.213,0.18,0.333,0.243C286.995,253.929,287.084,253.812,285.236,253.238z M289.722,254.024
					c-0.105,0.087-0.214,0.173-0.32,0.261c0.081,0.081,0.164,0.164,0.246,0.245c0.084-0.108,0.18-0.212,0.244-0.331
					c0.012-0.021-0.105-0.111-0.49,0.578c0-0.081,0-0.164,0-0.247c-0.144,0.053-0.305,0.08-0.419,0.168
					c-0.035,0.025,0.058,0.218,0.091,0.334C289.183,254.948,289.292,254.862,289.722,254.024z M290.497,255.129
					c0.021,0.855,1.276,1.585,2.085,1.616c0.648,0.027,0.743-0.334,0.684-0.846c-0.07-0.628-1.409-2.052-1.874-1.837
					C290.934,254.275,290.671,254.905,290.497,255.129z M285.004,261.562c-0.102,0.011-0.203,0.022-0.305,0.032
					c-0.021,0.197-0.044,0.395-0.066,0.592c0.246-0.013,0.565,0.07,0.729-0.054c1.002-0.762,1.417-1.9,1.983-2.975
					c0.326-0.616,0.559-1.136,0.263-1.688c-0.354-0.663-0.824-1.303-1.383-1.797c-0.213-0.187-1.023-0.061-0.327,0.618
					c0.06,0.059,0.038,0.334-0.021,0.364c-1.018,0.51-0.726,2.313-2.267,2.293c0.005,0.191-0.069,0.447,0.026,0.563
					c0.351,0.414,0.799,0.749,1.126,1.179C284.933,260.912,284.929,261.267,285.004,261.562z M282.752,257.843
					c0.855,0.007,1.595-0.432,1.676-1.013c0.144-1.01-1.145-0.363-1.271-1.08c-0.01-0.051-0.141-0.093-0.222-0.113
					c-0.621-0.161-1.632,0.326-1.816,0.873c-0.175,0.52,0.576,1.26,1.359,1.332C282.569,257.85,282.661,257.843,282.752,257.843z
					 M280.198,257.119c-0.299-0.452-0.639-1.335-0.918-1.315c-0.753,0.049-1.02,0.742-0.927,1.512
					c0.031,0.265-0.048,0.55,0.019,0.801c0.077,0.292,0.258,0.557,0.394,0.832c0.295-0.153,0.677-0.24,0.861-0.478
					C279.869,258.155,279.957,257.719,280.198,257.119z M294.076,259.5c0.188,0,0.282,0.011,0.372-0.002
					c1.112-0.178,0.856-1.446,1.553-1.958c-0.194-0.194-0.359-0.442-0.592-0.561c-0.136-0.066-0.474,0.01-0.554,0.131
					c-0.379,0.565-0.729,1.155-1.014,1.77C293.774,259.031,293.999,259.313,294.076,259.5z M288.848,260.328
					c-0.061-0.061-0.135-0.182-0.181-0.173c-0.13,0.029-0.248,0.112-0.371,0.173c0.062,0.062,0.138,0.183,0.183,0.173
					C288.608,260.472,288.727,260.389,288.848,260.328z"/>
				<path fill-rule="evenodd" clip-rule="evenodd" d="M291.93,255.68c0.064,0.063,0.182,0.153,0.171,0.174
					c-0.064,0.121-0.159,0.225-0.245,0.333c-0.082-0.081-0.164-0.164-0.246-0.245C291.717,255.854,291.825,255.766,291.93,255.68z"
					/>
				<path fill-rule="evenodd" clip-rule="evenodd" d="M282.842,257.335c-0.183-0.096-0.401-0.207-0.619-0.32
					c0.14-0.092,0.288-0.271,0.416-0.258c0.236,0.027,0.46,0.166,0.688,0.258C283.188,257.108,283.048,257.2,282.842,257.335z"/>
			</g>
			<g>
				<path fill-rule="evenodd" clip-rule="evenodd" d="M284.283,98.23c0.308,0.399,0.582,0.83,0.929,1.193
					c1.027,1.077,1.038,1.067,0.728,2.672c-0.185,0.136-0.392,0.25-0.548,0.414c-0.382,0.402-0.74,0.827-1.108,1.243
					c-0.062-0.153-0.122-0.305-0.182-0.458c-0.124,0.152-0.247,0.305-0.371,0.458c-0.76,1.207-0.741,1.188,0.291,2.24
					c0.507,0.516,0.907,0.798,1.522,0.116c0.429-0.473,1.335-0.768,1.409-1.239c0.085-0.531-0.556-1.16-0.822-1.771
					c-0.132-0.305-0.131-0.666-0.191-1.001c0.961-0.653,1.939-0.978,2.688,0.228c0.568,0.917,2.042,0.73,2.281,1.98
					c-0.184,0.216-0.488,0.413-0.526,0.653c-0.082,0.507-0.024,1.036-0.024,1.556c-1.149,0.668-2.82,0.556-3.314,2.208
					c-0.988,0.147-1.042,1.091-1.431,1.727c-0.69,1.131-0.954,1.058-2.38,1.085c-2.211,0.042-3.504-1.326-4.616-2.781
					c-0.755-0.988-1.108-2.342-0.967-3.715c0.317-3.046,2.219-4.966,4.67-5.702c1.095-0.329,1.149-0.489,0.376-1.305
					c-0.567-0.6-1.126-1.219-1.762-1.742c-0.498-0.41-0.575-0.891-0.511-1.448c0.046-0.395-0.225-1.061,0.503-0.99
					c0.377,0.037,0.899,0.385,1.041,0.725C283.145,97.375,283.089,97.418,284.283,98.23z M280.392,104.856
					c0.091,0,0.203,0.036,0.268-0.005c1.02-0.665,1.468-2.052,2.853-2.26c-0.112-0.435-0.143-0.919-0.367-1.284
					c-0.115-0.188-0.677-0.322-0.864-0.205c-1.24,0.775-1.47,2.274-2.283,3.367c-0.045,0.059,0.063,0.26,0.14,0.367
					C280.168,104.88,280.304,104.851,280.392,104.856z"/>
				<path fill-rule="evenodd" clip-rule="evenodd" d="M305.031,114.955c-0.793-1.104-1.085-1.875-0.457-1.77
					c1.238,0.208,2.482,0.576,3.626,1.095c0.872,0.396,1.399,1.262,1.782,2.183c1.087,2.619-0.824,6.529-3.532,7.167
					c-1.257,0.296-1.89-0.047-2.26-1.478c-0.18-0.696-0.487-1.091-1.135-1.283c-0.059-0.335-0.02-0.748-0.205-0.984
					c-0.179-0.227-0.604-0.244-0.895-0.399c-1.914-1.017-2.216-2.354-0.894-4.063c0.327-0.424,0.846-0.714,1.119-1.163
					C302.873,113.131,303.502,113.978,305.031,114.955c1.432-0.373,0.758-0.614-0.047-0.693c-0.263-0.026-0.549,0.165-0.823,0.257
					c0.236,0.092,0.481,0.168,0.707,0.283c0.138,0.069,0.245,0.198,0.366,0.3c-0.149,0.082-0.293,0.216-0.45,0.236
					c-0.687,0.09-1.485-0.253-1.98,0.541c-0.078,0.124-0.14,0.258-0.209,0.388c0.158,0.062,0.407,0.22,0.461,0.17
					c0.785-0.728,1.511-0.269,2.321-0.022C305.983,116.599,306.8,116.509,305.031,114.955z M308.083,121.13
					c-0.13-0.107-0.218-0.241-0.316-0.251c-0.438-0.042-0.89-0.047-0.838,0.593c0.012,0.148,0.129,0.287,0.197,0.431
					c0.309-0.249,0.616-0.497,1.22-1.542c-0.106,0.086-0.214,0.174-0.321,0.261c0.082,0.082,0.165,0.165,0.247,0.247
					c0.084-0.109,0.18-0.212,0.244-0.333C308.528,120.516,308.41,120.425,308.083,121.13z M309.129,118.436
					c0.025-0.588,0.133-1.446-0.754-1.873c-0.223-0.106-0.798,0.021-0.869,0.188c-0.337,0.788,0.546,2.726,1.272,2.921
					c0.091,0.024,0.316-0.127,0.334-0.224C309.161,119.189,309.129,118.915,309.129,118.436z"/>
				<path fill-rule="evenodd" clip-rule="evenodd" d="M299.191,115.347c-0.313,1.722-0.744,3.43-0.567,5.208
					c0.005,0.066-0.223,0.154-0.342,0.232c-0.064-0.154-0.168-0.304-0.187-0.464c-0.032-0.268,0.104-0.646-0.03-0.795
					c-0.426-0.467-0.89-0.606-1.084,0.235c-0.341,0.065-0.789,0.015-1.001,0.216c-0.676,0.639-1.25,1.394-2.196,0.357
					c-0.056-0.06-0.476,0.137-0.65,0.297c-0.088,0.079-0.075,0.397,0.014,0.517c0.218,0.292,0.503,0.748,0.767,0.753
					c1.399,0.028,0.408,0.643,0.318,1.062c-0.056,0.264,0.032,0.56-0.034,0.819c-0.022,0.091-0.345,0.203-0.476,0.154
					c-1.519-0.557-3.171-0.818-3.942-2.625c-1.301-3.051-0.584-7.5,3.843-7.646c0.39-0.013,0.768-0.346,1.15-0.529
					c0.203,0.945-0.422,1.99,0.354,2.891c0.066,0.077-0.203,0.578-0.424,0.734c-0.351,0.251-0.423,0.177-0.479-0.435
					c-0.024-0.272,0.032-0.555-0.014-0.822c-0.043-0.246-0.174-0.475-0.267-0.711c-0.195,0.195-0.591,0.478-0.551,0.569
					c0.256,0.58-1.604,1.277,0.09,1.73c0.349,1.342,0.916,1.265,1.734,0.327c0.26-0.298,0.78-0.351,1.106-0.61
					c0.508-0.406,1.045-0.83-0.209-1.018c-0.318-0.047-0.559-0.811-0.776-1.273c-0.229-0.485,0.132-0.947,0.683-0.807
					c0.481,0.123,0.958,0.377,1.36,0.678C297.941,114.811,298.285,115.592,299.191,115.347z"/>
				<path fill-rule="evenodd" clip-rule="evenodd" d="M294.773,113.139c-0.336-1.069-1.472-0.694-1.772-0.489
					c-1.305,0.888-3.145,1.005-3.808,2.908c-0.422,1.213-1.123,1.163-2.021,0.195c-1.393-1.5-1.596-3.082-0.726-5.071
					c0.271-0.621,0.401-1.304,0.596-1.959c0.175,0,0.365,0.045,0.522-0.007c0.921-0.311,1.443-1.484,2.637-1.218
					c0.051-0.328,0.104-0.655,0.155-0.983c0.184,0,0.367,0,0.551,0c0.041,1.067,0.041,1.049,1.265,1.117
					c0.326,0.017,0.687,0.119,0.958,0.295c0.934,0.607,1.834,1.263,2.747,1.9c0.062,0.153,0.122,0.306,0.182,0.458
					c0.124-0.152,0.247-0.305,0.371-0.458c0.184-0.184,0.368-0.368,0.551-0.552c0.185-0.184,0.369-0.368,0.554-0.552
					c0.779,0.146,0.627,0.542,0.337,1.066c-0.187,0.338-0.229,0.759-0.337,1.143c-0.185,0.184-0.369,0.369-0.554,0.552
					c-0.952-0.122-1.427,0.372-1.675,1.237C295.256,112.896,294.958,113,294.773,113.139z M290.133,111.652
					c0.396-0.238,0.621-0.353,0.824-0.5c0.418-0.305,0.623-0.895,1.331-0.796c0.416,0.058,0.861-0.104,1.292-0.166
					c-0.265-0.756-0.882-0.25-1.324-0.348c-0.599-0.133-1.313,0.006-1.806-0.273c-0.447-0.251-0.541-0.092-0.812,0.129
					c-0.359,0.292-0.365,0.461-0.024,0.806C289.869,110.761,289.94,111.199,290.133,111.652z M288.691,113.649
					c0-0.633,0.032-0.995-0.021-1.346c-0.017-0.108-0.278-0.268-0.406-0.25c-0.231,0.035-0.593,0.14-0.639,0.294
					c-0.099,0.33-0.13,0.75-0.003,1.057c0.128,0.306,0.48,0.519,0.734,0.773C288.51,113.934,288.664,113.69,288.691,113.649z
					 M291.381,109.077c-0.064-0.115-0.131-0.235-0.197-0.355c-0.062,0.062-0.183,0.136-0.172,0.182
					c0.027,0.129,0.11,0.248,0.172,0.371C291.246,109.211,291.307,109.151,291.381,109.077z"/>
				<path fill-rule="evenodd" clip-rule="evenodd" d="M301.399,120.316c0.552,0.184,1.105,0.368,1.656,0.552
					c0.184,0.929,0.466,1.851,0.534,2.788c0.207,2.839-2.497,5.037-5.525,4.313c-0.918-0.22-1.784-1.25-2.36-2.117
					c-0.475-0.715-0.665-1.602-0.473-2.68c0.25-1.407,1.18-2.277,1.75-3.409c1.07,0.333,0.276,1.249,0.58,1.795
					c0.12,0.216,0.768,0.408,0.794,0.368c0.685-1.075,1.776-1.073,2.849-1.161C301.281,120.76,301.335,120.473,301.399,120.316z
					 M301.951,123.897c-0.063-0.125-0.191-0.729-0.429-0.774c-0.906-0.176-0.636,0.581-0.671,1.063
					c-0.02,0.27-0.048,0.553,0.015,0.81c0.03,0.122,0.272,0.286,0.399,0.27c0.236-0.029,0.564-0.117,0.659-0.288
					C302.039,124.769,301.951,124.449,301.951,123.897z"/>
				<path fill-rule="evenodd" clip-rule="evenodd" d="M299.191,110.378c0-0.18-0.015-0.361,0.002-0.54
					c0.047-0.519,0.104-1.035,0.157-1.554c0.638,0.182,0.738,0.714,1.021,1.225c0.269,0.484,1.18,0.753,1.58-0.236
					c0.831-0.144,1.357,0.284,1.644,0.984c0.25,0.614,0.628,1.324,0.514,1.906c-0.222,1.123-1.271,0.996-2.157,0.975
					c0-0.087,0.021-0.245-0.002-0.25c-0.469-0.123-1.002-0.128-1.395-0.368c-0.351-0.214-0.547-0.683-0.812-1.04
					C299.66,111.063,300.017,110.425,299.191,110.378z"/>
				<path fill-rule="evenodd" clip-rule="evenodd" d="M292.012,104.304c-0.45-0.542-0.911-1.075-1.346-1.628
					c-0.574-0.729-0.324-1.107,0.473-1.714c1.166-0.889,2.341-0.542,3.538-0.328c0.464,0.083,0.482,0.635,0.152,1.143
					c-0.417,0.638-0.776,1.315-1.16,1.975C293.117,103.936,292.565,104.12,292.012,104.304z"/>
				<path fill-rule="evenodd" clip-rule="evenodd" d="M296.981,107.065c0.185,0.552,0.369,1.104,0.554,1.656
					c-0.185,0.184-0.369,0.368-0.554,0.552c-0.183,0.184-0.367,0.368-0.551,0.552c-0.184,0-0.369,0-0.553,0
					c-0.127-0.402-0.146-0.895-0.397-1.192c-1.184-1.403-2.878-1.776-4.572-2.12c0-0.736,0-1.473,0-2.208c0.369,0,0.736,0,1.104,0
					c-0.183,0.377-0.395,0.746-0.528,1.139c-0.027,0.079,0.3,0.398,0.369,0.37c0.725-0.289,1.842-0.505,2.368-0.405
					c0.047,0.826,0.686,0.469,1.104,0.552c0.047,0.826,0.686,0.469,1.104,0.552C296.614,106.697,296.798,106.881,296.981,107.065z"
					/>
				<path fill-rule="evenodd" clip-rule="evenodd" d="M297.535,110.93c0.552-0.184,1.104-0.368,1.656-0.552
					c0.084,0.418-0.273,1.057,0.552,1.104c0,1.064,0.033,2.129-0.025,3.191c-0.013,0.233-0.343,0.45-0.526,0.674
					c-0.724-0.995-1.265-2.207-2.784-2.214c-0.545-0.002-0.563-0.22-0.212-0.602c0.295-0.319,0.527-0.696,0.786-1.049
					C297.166,111.298,297.35,111.114,297.535,110.93z"/>
				<path fill-rule="evenodd" clip-rule="evenodd" d="M293.669,103.752c0.705,0.028,1.446-0.193,1.979,0.574
					c0.443,0.64,0.762,0.691,0.827-0.272c0.018-0.261,0.594-0.483,0.913-0.724c0.233,0.364,0.608,0.706,0.668,1.095
					c0.107,0.719,0.088,1.473,0.014,2.201c-0.073,0.708-0.695,0.356-1.089,0.438c-0.183-0.184-0.367-0.368-0.551-0.552
					c-0.047-0.826-0.687-0.469-1.104-0.552c-0.047-0.826-0.687-0.469-1.104-0.552C294.038,104.856,293.853,104.304,293.669,103.752z
					"/>
				<path fill-rule="evenodd" clip-rule="evenodd" d="M301.98,113.389c-0.415,0.414-0.79,0.818-1.207,1.174
					c-0.063,0.054-0.451-0.101-0.455-0.174c-0.022-0.35-0.089-0.906,0.091-1.018c0.339-0.211,0.835-0.185,1.27-0.219
					C301.77,113.144,301.875,113.303,301.98,113.389z"/>
				<path fill-rule="evenodd" clip-rule="evenodd" d="M300.3,120.316c-0.091,0-0.195,0.029-0.272-0.005
					c-0.249-0.112-0.488-0.249-0.731-0.376c0.064-0.065,0.135-0.125,0.193-0.195c0.296-0.354,0.578-0.678,0.985-0.095
					c0.073,0.104,0.331,0.061,0.487,0.125c0.157,0.065,0.293,0.179,0.437,0.271c-0.183,0.091-0.357,0.215-0.551,0.266
					C300.676,120.352,300.483,120.316,300.3,120.316z"/>
				<path fill-rule="evenodd" clip-rule="evenodd" d="M284.283,97.126c0.152,0.061,0.348,0.081,0.449,0.19
					c0.209,0.223,0.368,0.494,0.548,0.745c-0.333,0.057-0.665,0.113-0.997,0.169C284.283,97.862,284.283,97.495,284.283,97.126z"/>
				<path fill-rule="evenodd" clip-rule="evenodd" d="M296.362,102.855c-0.078,0.113-0.201,0.338-0.23,0.328
					c-0.278-0.113-0.594-0.218-0.778-0.431c-0.073-0.082,0.156-0.43,0.249-0.657C295.851,102.345,296.101,102.595,296.362,102.855z"
					/>
				<path fill-rule="evenodd" clip-rule="evenodd" d="M301.454,109.382c-0.229-0.176-0.393-0.304-0.56-0.431
					c0.226-0.077,0.448-0.199,0.677-0.21c0.122-0.006,0.254,0.178,0.38,0.276C301.799,109.128,301.646,109.241,301.454,109.382z"/>
				<path fill-rule="evenodd" clip-rule="evenodd" d="M282.932,96.022c-0.086-0.109-0.17-0.219-0.254-0.327
					c0.115-0.034,0.307-0.125,0.333-0.091c0.088,0.115,0.116,0.275,0.168,0.418C283.096,96.022,283.014,96.022,282.932,96.022z"/>
				<path fill-rule="evenodd" clip-rule="evenodd" d="M283.73,96.574c-0.184-0.184-0.368-0.368-0.551-0.552
					C283.362,96.206,283.546,96.39,283.73,96.574z"/>
				<path fill-rule="evenodd" clip-rule="evenodd" d="M284.283,97.126c-0.184-0.184-0.369-0.369-0.553-0.552
					C283.914,96.757,284.099,96.942,284.283,97.126z"/>
				<path fill-rule="evenodd" clip-rule="evenodd" d="M283.73,103.752c0.184,0,0.369,0,0.553,0c0.089,0.908,0.805,0.41,1.234,0.559
					c0.152,0.052,0.278,0.181,0.415,0.276c-0.064,0.063-0.133,0.187-0.19,0.182c-0.671-0.056-1.344-0.116-2.005-0.237
					C283.689,104.523,283.73,104.023,283.73,103.752z"/>
			</g>
		</g>
	</g>
</g>
</svg>
